G04 #@! TF.GenerationSoftware,KiCad,Pcbnew,(5.1.0-0)*
G04 #@! TF.CreationDate,2019-04-21T18:11:27+10:00*
G04 #@! TF.ProjectId,ETE006-CM119B-Breatout,45544530-3036-42d4-934d-313139422d42,1*
G04 #@! TF.SameCoordinates,Original*
G04 #@! TF.FileFunction,Copper,L2,Bot*
G04 #@! TF.FilePolarity,Positive*
%FSLAX46Y46*%
G04 Gerber Fmt 4.6, Leading zero omitted, Abs format (unit mm)*
G04 Created by KiCad (PCBNEW (5.1.0-0)) date 2019-04-21 18:11:27*
%MOMM*%
%LPD*%
G04 APERTURE LIST*
%ADD10R,1.700000X1.700000*%
%ADD11O,1.700000X1.700000*%
%ADD12C,0.254000*%
G04 APERTURE END LIST*
D10*
X117933224Y-82578949D03*
D11*
X117933224Y-85118949D03*
X117933224Y-87658949D03*
X117933224Y-90198949D03*
X117933224Y-92738949D03*
X117933224Y-95278949D03*
X117933224Y-97818949D03*
X117933224Y-100358949D03*
X117933224Y-102898949D03*
X117933224Y-105438949D03*
X117933224Y-107978949D03*
X117933224Y-110518949D03*
X117933224Y-113058949D03*
X117933224Y-115598949D03*
X117933224Y-118138949D03*
X117933224Y-120678949D03*
X117933224Y-123218949D03*
X117933224Y-125758949D03*
X117933224Y-128298949D03*
X117933224Y-130838949D03*
X117933224Y-133378949D03*
X117933224Y-135918949D03*
X117933224Y-138458949D03*
X117933224Y-140998949D03*
X140793224Y-140998949D03*
X140793224Y-138458949D03*
X140793224Y-135918949D03*
X140793224Y-133378949D03*
X140793224Y-130838949D03*
X140793224Y-128298949D03*
X140793224Y-125758949D03*
X140793224Y-123218949D03*
X140793224Y-120678949D03*
X140793224Y-118138949D03*
X140793224Y-115598949D03*
X140793224Y-113058949D03*
X140793224Y-110518949D03*
X140793224Y-107978949D03*
X140793224Y-105438949D03*
X140793224Y-102898949D03*
X140793224Y-100358949D03*
X140793224Y-97818949D03*
X140793224Y-95278949D03*
X140793224Y-92738949D03*
X140793224Y-90198949D03*
X140793224Y-87658949D03*
X140793224Y-85118949D03*
D10*
X140793224Y-82578949D03*
D12*
G36*
X116878090Y-142054083D02*
G01*
X117104210Y-142239655D01*
X117235816Y-142310000D01*
X116740000Y-142310000D01*
X116740000Y-141885820D01*
X116878090Y-142054083D01*
X116878090Y-142054083D01*
G37*
X116878090Y-142054083D02*
X117104210Y-142239655D01*
X117235816Y-142310000D01*
X116740000Y-142310000D01*
X116740000Y-141885820D01*
X116878090Y-142054083D01*
G36*
X141990000Y-81194287D02*
G01*
X141887404Y-81139447D01*
X141767706Y-81103137D01*
X141643224Y-81090877D01*
X139943224Y-81090877D01*
X139818742Y-81103137D01*
X139699044Y-81139447D01*
X139588730Y-81198412D01*
X139492039Y-81277764D01*
X139412687Y-81374455D01*
X139353722Y-81484769D01*
X139317412Y-81604467D01*
X139305152Y-81728949D01*
X139305152Y-83428949D01*
X139317412Y-83553431D01*
X139353722Y-83673129D01*
X139412687Y-83783443D01*
X139492039Y-83880134D01*
X139588730Y-83959486D01*
X139699044Y-84018451D01*
X139767911Y-84039342D01*
X139738090Y-84063815D01*
X139552518Y-84289935D01*
X139414625Y-84547915D01*
X139329711Y-84827838D01*
X139301039Y-85118949D01*
X139329711Y-85410060D01*
X139414625Y-85689983D01*
X139552518Y-85947963D01*
X139738090Y-86174083D01*
X139964210Y-86359655D01*
X140019015Y-86388949D01*
X139964210Y-86418243D01*
X139738090Y-86603815D01*
X139552518Y-86829935D01*
X139414625Y-87087915D01*
X139329711Y-87367838D01*
X139301039Y-87658949D01*
X139329711Y-87950060D01*
X139414625Y-88229983D01*
X139552518Y-88487963D01*
X139738090Y-88714083D01*
X139964210Y-88899655D01*
X140019015Y-88928949D01*
X139964210Y-88958243D01*
X139738090Y-89143815D01*
X139552518Y-89369935D01*
X139414625Y-89627915D01*
X139329711Y-89907838D01*
X139301039Y-90198949D01*
X139329711Y-90490060D01*
X139414625Y-90769983D01*
X139552518Y-91027963D01*
X139738090Y-91254083D01*
X139964210Y-91439655D01*
X140019015Y-91468949D01*
X139964210Y-91498243D01*
X139738090Y-91683815D01*
X139552518Y-91909935D01*
X139414625Y-92167915D01*
X139329711Y-92447838D01*
X139301039Y-92738949D01*
X139329711Y-93030060D01*
X139414625Y-93309983D01*
X139552518Y-93567963D01*
X139738090Y-93794083D01*
X139964210Y-93979655D01*
X140019015Y-94008949D01*
X139964210Y-94038243D01*
X139738090Y-94223815D01*
X139552518Y-94449935D01*
X139414625Y-94707915D01*
X139329711Y-94987838D01*
X139301039Y-95278949D01*
X139329711Y-95570060D01*
X139414625Y-95849983D01*
X139552518Y-96107963D01*
X139738090Y-96334083D01*
X139964210Y-96519655D01*
X140019015Y-96548949D01*
X139964210Y-96578243D01*
X139738090Y-96763815D01*
X139552518Y-96989935D01*
X139414625Y-97247915D01*
X139329711Y-97527838D01*
X139301039Y-97818949D01*
X139329711Y-98110060D01*
X139414625Y-98389983D01*
X139552518Y-98647963D01*
X139738090Y-98874083D01*
X139964210Y-99059655D01*
X140019015Y-99088949D01*
X139964210Y-99118243D01*
X139738090Y-99303815D01*
X139552518Y-99529935D01*
X139414625Y-99787915D01*
X139329711Y-100067838D01*
X139301039Y-100358949D01*
X139329711Y-100650060D01*
X139414625Y-100929983D01*
X139552518Y-101187963D01*
X139738090Y-101414083D01*
X139964210Y-101599655D01*
X140019015Y-101628949D01*
X139964210Y-101658243D01*
X139738090Y-101843815D01*
X139552518Y-102069935D01*
X139414625Y-102327915D01*
X139329711Y-102607838D01*
X139301039Y-102898949D01*
X139329711Y-103190060D01*
X139414625Y-103469983D01*
X139552518Y-103727963D01*
X139738090Y-103954083D01*
X139964210Y-104139655D01*
X140019015Y-104168949D01*
X139964210Y-104198243D01*
X139738090Y-104383815D01*
X139552518Y-104609935D01*
X139414625Y-104867915D01*
X139329711Y-105147838D01*
X139301039Y-105438949D01*
X139329711Y-105730060D01*
X139414625Y-106009983D01*
X139552518Y-106267963D01*
X139738090Y-106494083D01*
X139964210Y-106679655D01*
X140019015Y-106708949D01*
X139964210Y-106738243D01*
X139738090Y-106923815D01*
X139552518Y-107149935D01*
X139414625Y-107407915D01*
X139329711Y-107687838D01*
X139301039Y-107978949D01*
X139329711Y-108270060D01*
X139414625Y-108549983D01*
X139552518Y-108807963D01*
X139738090Y-109034083D01*
X139964210Y-109219655D01*
X140019015Y-109248949D01*
X139964210Y-109278243D01*
X139738090Y-109463815D01*
X139552518Y-109689935D01*
X139414625Y-109947915D01*
X139329711Y-110227838D01*
X139301039Y-110518949D01*
X139329711Y-110810060D01*
X139414625Y-111089983D01*
X139552518Y-111347963D01*
X139738090Y-111574083D01*
X139964210Y-111759655D01*
X140019015Y-111788949D01*
X139964210Y-111818243D01*
X139738090Y-112003815D01*
X139552518Y-112229935D01*
X139414625Y-112487915D01*
X139329711Y-112767838D01*
X139301039Y-113058949D01*
X139329711Y-113350060D01*
X139414625Y-113629983D01*
X139552518Y-113887963D01*
X139738090Y-114114083D01*
X139964210Y-114299655D01*
X140019015Y-114328949D01*
X139964210Y-114358243D01*
X139738090Y-114543815D01*
X139552518Y-114769935D01*
X139414625Y-115027915D01*
X139329711Y-115307838D01*
X139301039Y-115598949D01*
X139329711Y-115890060D01*
X139414625Y-116169983D01*
X139552518Y-116427963D01*
X139738090Y-116654083D01*
X139964210Y-116839655D01*
X140019015Y-116868949D01*
X139964210Y-116898243D01*
X139738090Y-117083815D01*
X139552518Y-117309935D01*
X139414625Y-117567915D01*
X139329711Y-117847838D01*
X139301039Y-118138949D01*
X139329711Y-118430060D01*
X139414625Y-118709983D01*
X139552518Y-118967963D01*
X139738090Y-119194083D01*
X139964210Y-119379655D01*
X140019015Y-119408949D01*
X139964210Y-119438243D01*
X139738090Y-119623815D01*
X139552518Y-119849935D01*
X139414625Y-120107915D01*
X139329711Y-120387838D01*
X139301039Y-120678949D01*
X139329711Y-120970060D01*
X139414625Y-121249983D01*
X139552518Y-121507963D01*
X139738090Y-121734083D01*
X139964210Y-121919655D01*
X140019015Y-121948949D01*
X139964210Y-121978243D01*
X139738090Y-122163815D01*
X139552518Y-122389935D01*
X139414625Y-122647915D01*
X139329711Y-122927838D01*
X139301039Y-123218949D01*
X139329711Y-123510060D01*
X139414625Y-123789983D01*
X139552518Y-124047963D01*
X139738090Y-124274083D01*
X139964210Y-124459655D01*
X140019015Y-124488949D01*
X139964210Y-124518243D01*
X139738090Y-124703815D01*
X139552518Y-124929935D01*
X139414625Y-125187915D01*
X139329711Y-125467838D01*
X139301039Y-125758949D01*
X139329711Y-126050060D01*
X139414625Y-126329983D01*
X139552518Y-126587963D01*
X139738090Y-126814083D01*
X139964210Y-126999655D01*
X140019015Y-127028949D01*
X139964210Y-127058243D01*
X139738090Y-127243815D01*
X139552518Y-127469935D01*
X139414625Y-127727915D01*
X139329711Y-128007838D01*
X139301039Y-128298949D01*
X139329711Y-128590060D01*
X139414625Y-128869983D01*
X139552518Y-129127963D01*
X139738090Y-129354083D01*
X139964210Y-129539655D01*
X140019015Y-129568949D01*
X139964210Y-129598243D01*
X139738090Y-129783815D01*
X139552518Y-130009935D01*
X139414625Y-130267915D01*
X139329711Y-130547838D01*
X139301039Y-130838949D01*
X139329711Y-131130060D01*
X139414625Y-131409983D01*
X139552518Y-131667963D01*
X139738090Y-131894083D01*
X139964210Y-132079655D01*
X140019015Y-132108949D01*
X139964210Y-132138243D01*
X139738090Y-132323815D01*
X139552518Y-132549935D01*
X139414625Y-132807915D01*
X139329711Y-133087838D01*
X139301039Y-133378949D01*
X139329711Y-133670060D01*
X139414625Y-133949983D01*
X139552518Y-134207963D01*
X139738090Y-134434083D01*
X139964210Y-134619655D01*
X140019015Y-134648949D01*
X139964210Y-134678243D01*
X139738090Y-134863815D01*
X139552518Y-135089935D01*
X139414625Y-135347915D01*
X139329711Y-135627838D01*
X139301039Y-135918949D01*
X139329711Y-136210060D01*
X139414625Y-136489983D01*
X139552518Y-136747963D01*
X139738090Y-136974083D01*
X139964210Y-137159655D01*
X140019015Y-137188949D01*
X139964210Y-137218243D01*
X139738090Y-137403815D01*
X139552518Y-137629935D01*
X139414625Y-137887915D01*
X139329711Y-138167838D01*
X139301039Y-138458949D01*
X139329711Y-138750060D01*
X139414625Y-139029983D01*
X139552518Y-139287963D01*
X139738090Y-139514083D01*
X139964210Y-139699655D01*
X140019015Y-139728949D01*
X139964210Y-139758243D01*
X139738090Y-139943815D01*
X139552518Y-140169935D01*
X139414625Y-140427915D01*
X139329711Y-140707838D01*
X139301039Y-140998949D01*
X139329711Y-141290060D01*
X139414625Y-141569983D01*
X139552518Y-141827963D01*
X139738090Y-142054083D01*
X139964210Y-142239655D01*
X140095816Y-142310000D01*
X118630632Y-142310000D01*
X118762238Y-142239655D01*
X118988358Y-142054083D01*
X119173930Y-141827963D01*
X119311823Y-141569983D01*
X119396737Y-141290060D01*
X119425409Y-140998949D01*
X119396737Y-140707838D01*
X119311823Y-140427915D01*
X119173930Y-140169935D01*
X118988358Y-139943815D01*
X118762238Y-139758243D01*
X118707433Y-139728949D01*
X118762238Y-139699655D01*
X118988358Y-139514083D01*
X119173930Y-139287963D01*
X119311823Y-139029983D01*
X119396737Y-138750060D01*
X119425409Y-138458949D01*
X119396737Y-138167838D01*
X119311823Y-137887915D01*
X119173930Y-137629935D01*
X118988358Y-137403815D01*
X118762238Y-137218243D01*
X118707433Y-137188949D01*
X118762238Y-137159655D01*
X118988358Y-136974083D01*
X119173930Y-136747963D01*
X119311823Y-136489983D01*
X119396737Y-136210060D01*
X119425409Y-135918949D01*
X119396737Y-135627838D01*
X119311823Y-135347915D01*
X119173930Y-135089935D01*
X118988358Y-134863815D01*
X118762238Y-134678243D01*
X118707433Y-134648949D01*
X118762238Y-134619655D01*
X118988358Y-134434083D01*
X119173930Y-134207963D01*
X119311823Y-133949983D01*
X119396737Y-133670060D01*
X119425409Y-133378949D01*
X119396737Y-133087838D01*
X119311823Y-132807915D01*
X119173930Y-132549935D01*
X118988358Y-132323815D01*
X118762238Y-132138243D01*
X118707433Y-132108949D01*
X118762238Y-132079655D01*
X118988358Y-131894083D01*
X119173930Y-131667963D01*
X119311823Y-131409983D01*
X119396737Y-131130060D01*
X119425409Y-130838949D01*
X119396737Y-130547838D01*
X119311823Y-130267915D01*
X119173930Y-130009935D01*
X118988358Y-129783815D01*
X118762238Y-129598243D01*
X118707433Y-129568949D01*
X118762238Y-129539655D01*
X118988358Y-129354083D01*
X119173930Y-129127963D01*
X119311823Y-128869983D01*
X119396737Y-128590060D01*
X119425409Y-128298949D01*
X119396737Y-128007838D01*
X119311823Y-127727915D01*
X119173930Y-127469935D01*
X118988358Y-127243815D01*
X118762238Y-127058243D01*
X118707433Y-127028949D01*
X118762238Y-126999655D01*
X118988358Y-126814083D01*
X119173930Y-126587963D01*
X119311823Y-126329983D01*
X119396737Y-126050060D01*
X119425409Y-125758949D01*
X119396737Y-125467838D01*
X119311823Y-125187915D01*
X119173930Y-124929935D01*
X118988358Y-124703815D01*
X118762238Y-124518243D01*
X118707433Y-124488949D01*
X118762238Y-124459655D01*
X118988358Y-124274083D01*
X119173930Y-124047963D01*
X119311823Y-123789983D01*
X119396737Y-123510060D01*
X119425409Y-123218949D01*
X119396737Y-122927838D01*
X119311823Y-122647915D01*
X119173930Y-122389935D01*
X118988358Y-122163815D01*
X118762238Y-121978243D01*
X118707433Y-121948949D01*
X118762238Y-121919655D01*
X118988358Y-121734083D01*
X119173930Y-121507963D01*
X119311823Y-121249983D01*
X119396737Y-120970060D01*
X119425409Y-120678949D01*
X119396737Y-120387838D01*
X119311823Y-120107915D01*
X119173930Y-119849935D01*
X118988358Y-119623815D01*
X118762238Y-119438243D01*
X118707433Y-119408949D01*
X118762238Y-119379655D01*
X118988358Y-119194083D01*
X119173930Y-118967963D01*
X119311823Y-118709983D01*
X119396737Y-118430060D01*
X119425409Y-118138949D01*
X119396737Y-117847838D01*
X119311823Y-117567915D01*
X119173930Y-117309935D01*
X118988358Y-117083815D01*
X118762238Y-116898243D01*
X118707433Y-116868949D01*
X118762238Y-116839655D01*
X118988358Y-116654083D01*
X119173930Y-116427963D01*
X119311823Y-116169983D01*
X119396737Y-115890060D01*
X119425409Y-115598949D01*
X119396737Y-115307838D01*
X119311823Y-115027915D01*
X119173930Y-114769935D01*
X118988358Y-114543815D01*
X118762238Y-114358243D01*
X118707433Y-114328949D01*
X118762238Y-114299655D01*
X118988358Y-114114083D01*
X119173930Y-113887963D01*
X119311823Y-113629983D01*
X119396737Y-113350060D01*
X119425409Y-113058949D01*
X119396737Y-112767838D01*
X119311823Y-112487915D01*
X119173930Y-112229935D01*
X118988358Y-112003815D01*
X118762238Y-111818243D01*
X118707433Y-111788949D01*
X118762238Y-111759655D01*
X118988358Y-111574083D01*
X119173930Y-111347963D01*
X119311823Y-111089983D01*
X119396737Y-110810060D01*
X119425409Y-110518949D01*
X119396737Y-110227838D01*
X119311823Y-109947915D01*
X119173930Y-109689935D01*
X118988358Y-109463815D01*
X118762238Y-109278243D01*
X118707433Y-109248949D01*
X118762238Y-109219655D01*
X118988358Y-109034083D01*
X119173930Y-108807963D01*
X119311823Y-108549983D01*
X119396737Y-108270060D01*
X119425409Y-107978949D01*
X119396737Y-107687838D01*
X119311823Y-107407915D01*
X119173930Y-107149935D01*
X118988358Y-106923815D01*
X118762238Y-106738243D01*
X118707433Y-106708949D01*
X118762238Y-106679655D01*
X118988358Y-106494083D01*
X119173930Y-106267963D01*
X119311823Y-106009983D01*
X119396737Y-105730060D01*
X119425409Y-105438949D01*
X119396737Y-105147838D01*
X119311823Y-104867915D01*
X119173930Y-104609935D01*
X118988358Y-104383815D01*
X118762238Y-104198243D01*
X118707433Y-104168949D01*
X118762238Y-104139655D01*
X118988358Y-103954083D01*
X119173930Y-103727963D01*
X119311823Y-103469983D01*
X119396737Y-103190060D01*
X119425409Y-102898949D01*
X119396737Y-102607838D01*
X119311823Y-102327915D01*
X119173930Y-102069935D01*
X118988358Y-101843815D01*
X118762238Y-101658243D01*
X118707433Y-101628949D01*
X118762238Y-101599655D01*
X118988358Y-101414083D01*
X119173930Y-101187963D01*
X119311823Y-100929983D01*
X119396737Y-100650060D01*
X119425409Y-100358949D01*
X119396737Y-100067838D01*
X119311823Y-99787915D01*
X119173930Y-99529935D01*
X118988358Y-99303815D01*
X118762238Y-99118243D01*
X118707433Y-99088949D01*
X118762238Y-99059655D01*
X118988358Y-98874083D01*
X119173930Y-98647963D01*
X119311823Y-98389983D01*
X119396737Y-98110060D01*
X119425409Y-97818949D01*
X119396737Y-97527838D01*
X119311823Y-97247915D01*
X119173930Y-96989935D01*
X118988358Y-96763815D01*
X118762238Y-96578243D01*
X118707433Y-96548949D01*
X118762238Y-96519655D01*
X118988358Y-96334083D01*
X119173930Y-96107963D01*
X119311823Y-95849983D01*
X119396737Y-95570060D01*
X119425409Y-95278949D01*
X119396737Y-94987838D01*
X119311823Y-94707915D01*
X119173930Y-94449935D01*
X118988358Y-94223815D01*
X118762238Y-94038243D01*
X118707433Y-94008949D01*
X118762238Y-93979655D01*
X118988358Y-93794083D01*
X119173930Y-93567963D01*
X119311823Y-93309983D01*
X119396737Y-93030060D01*
X119425409Y-92738949D01*
X119396737Y-92447838D01*
X119311823Y-92167915D01*
X119173930Y-91909935D01*
X118988358Y-91683815D01*
X118762238Y-91498243D01*
X118707433Y-91468949D01*
X118762238Y-91439655D01*
X118988358Y-91254083D01*
X119173930Y-91027963D01*
X119311823Y-90769983D01*
X119396737Y-90490060D01*
X119425409Y-90198949D01*
X119396737Y-89907838D01*
X119311823Y-89627915D01*
X119173930Y-89369935D01*
X118988358Y-89143815D01*
X118762238Y-88958243D01*
X118707433Y-88928949D01*
X118762238Y-88899655D01*
X118988358Y-88714083D01*
X119173930Y-88487963D01*
X119311823Y-88229983D01*
X119396737Y-87950060D01*
X119425409Y-87658949D01*
X119396737Y-87367838D01*
X119311823Y-87087915D01*
X119173930Y-86829935D01*
X118988358Y-86603815D01*
X118762238Y-86418243D01*
X118707433Y-86388949D01*
X118762238Y-86359655D01*
X118988358Y-86174083D01*
X119173930Y-85947963D01*
X119311823Y-85689983D01*
X119396737Y-85410060D01*
X119425409Y-85118949D01*
X119396737Y-84827838D01*
X119311823Y-84547915D01*
X119173930Y-84289935D01*
X118988358Y-84063815D01*
X118958537Y-84039342D01*
X119027404Y-84018451D01*
X119137718Y-83959486D01*
X119234409Y-83880134D01*
X119313761Y-83783443D01*
X119372726Y-83673129D01*
X119409036Y-83553431D01*
X119421296Y-83428949D01*
X119421296Y-81728949D01*
X119409036Y-81604467D01*
X119372726Y-81484769D01*
X119313761Y-81374455D01*
X119234409Y-81277764D01*
X119137718Y-81198412D01*
X119027404Y-81139447D01*
X118907706Y-81103137D01*
X118783224Y-81090877D01*
X117083224Y-81090877D01*
X116958742Y-81103137D01*
X116839044Y-81139447D01*
X116740000Y-81192388D01*
X116740000Y-80230000D01*
X141990000Y-80230000D01*
X141990000Y-81194287D01*
X141990000Y-81194287D01*
G37*
X141990000Y-81194287D02*
X141887404Y-81139447D01*
X141767706Y-81103137D01*
X141643224Y-81090877D01*
X139943224Y-81090877D01*
X139818742Y-81103137D01*
X139699044Y-81139447D01*
X139588730Y-81198412D01*
X139492039Y-81277764D01*
X139412687Y-81374455D01*
X139353722Y-81484769D01*
X139317412Y-81604467D01*
X139305152Y-81728949D01*
X139305152Y-83428949D01*
X139317412Y-83553431D01*
X139353722Y-83673129D01*
X139412687Y-83783443D01*
X139492039Y-83880134D01*
X139588730Y-83959486D01*
X139699044Y-84018451D01*
X139767911Y-84039342D01*
X139738090Y-84063815D01*
X139552518Y-84289935D01*
X139414625Y-84547915D01*
X139329711Y-84827838D01*
X139301039Y-85118949D01*
X139329711Y-85410060D01*
X139414625Y-85689983D01*
X139552518Y-85947963D01*
X139738090Y-86174083D01*
X139964210Y-86359655D01*
X140019015Y-86388949D01*
X139964210Y-86418243D01*
X139738090Y-86603815D01*
X139552518Y-86829935D01*
X139414625Y-87087915D01*
X139329711Y-87367838D01*
X139301039Y-87658949D01*
X139329711Y-87950060D01*
X139414625Y-88229983D01*
X139552518Y-88487963D01*
X139738090Y-88714083D01*
X139964210Y-88899655D01*
X140019015Y-88928949D01*
X139964210Y-88958243D01*
X139738090Y-89143815D01*
X139552518Y-89369935D01*
X139414625Y-89627915D01*
X139329711Y-89907838D01*
X139301039Y-90198949D01*
X139329711Y-90490060D01*
X139414625Y-90769983D01*
X139552518Y-91027963D01*
X139738090Y-91254083D01*
X139964210Y-91439655D01*
X140019015Y-91468949D01*
X139964210Y-91498243D01*
X139738090Y-91683815D01*
X139552518Y-91909935D01*
X139414625Y-92167915D01*
X139329711Y-92447838D01*
X139301039Y-92738949D01*
X139329711Y-93030060D01*
X139414625Y-93309983D01*
X139552518Y-93567963D01*
X139738090Y-93794083D01*
X139964210Y-93979655D01*
X140019015Y-94008949D01*
X139964210Y-94038243D01*
X139738090Y-94223815D01*
X139552518Y-94449935D01*
X139414625Y-94707915D01*
X139329711Y-94987838D01*
X139301039Y-95278949D01*
X139329711Y-95570060D01*
X139414625Y-95849983D01*
X139552518Y-96107963D01*
X139738090Y-96334083D01*
X139964210Y-96519655D01*
X140019015Y-96548949D01*
X139964210Y-96578243D01*
X139738090Y-96763815D01*
X139552518Y-96989935D01*
X139414625Y-97247915D01*
X139329711Y-97527838D01*
X139301039Y-97818949D01*
X139329711Y-98110060D01*
X139414625Y-98389983D01*
X139552518Y-98647963D01*
X139738090Y-98874083D01*
X139964210Y-99059655D01*
X140019015Y-99088949D01*
X139964210Y-99118243D01*
X139738090Y-99303815D01*
X139552518Y-99529935D01*
X139414625Y-99787915D01*
X139329711Y-100067838D01*
X139301039Y-100358949D01*
X139329711Y-100650060D01*
X139414625Y-100929983D01*
X139552518Y-101187963D01*
X139738090Y-101414083D01*
X139964210Y-101599655D01*
X140019015Y-101628949D01*
X139964210Y-101658243D01*
X139738090Y-101843815D01*
X139552518Y-102069935D01*
X139414625Y-102327915D01*
X139329711Y-102607838D01*
X139301039Y-102898949D01*
X139329711Y-103190060D01*
X139414625Y-103469983D01*
X139552518Y-103727963D01*
X139738090Y-103954083D01*
X139964210Y-104139655D01*
X140019015Y-104168949D01*
X139964210Y-104198243D01*
X139738090Y-104383815D01*
X139552518Y-104609935D01*
X139414625Y-104867915D01*
X139329711Y-105147838D01*
X139301039Y-105438949D01*
X139329711Y-105730060D01*
X139414625Y-106009983D01*
X139552518Y-106267963D01*
X139738090Y-106494083D01*
X139964210Y-106679655D01*
X140019015Y-106708949D01*
X139964210Y-106738243D01*
X139738090Y-106923815D01*
X139552518Y-107149935D01*
X139414625Y-107407915D01*
X139329711Y-107687838D01*
X139301039Y-107978949D01*
X139329711Y-108270060D01*
X139414625Y-108549983D01*
X139552518Y-108807963D01*
X139738090Y-109034083D01*
X139964210Y-109219655D01*
X140019015Y-109248949D01*
X139964210Y-109278243D01*
X139738090Y-109463815D01*
X139552518Y-109689935D01*
X139414625Y-109947915D01*
X139329711Y-110227838D01*
X139301039Y-110518949D01*
X139329711Y-110810060D01*
X139414625Y-111089983D01*
X139552518Y-111347963D01*
X139738090Y-111574083D01*
X139964210Y-111759655D01*
X140019015Y-111788949D01*
X139964210Y-111818243D01*
X139738090Y-112003815D01*
X139552518Y-112229935D01*
X139414625Y-112487915D01*
X139329711Y-112767838D01*
X139301039Y-113058949D01*
X139329711Y-113350060D01*
X139414625Y-113629983D01*
X139552518Y-113887963D01*
X139738090Y-114114083D01*
X139964210Y-114299655D01*
X140019015Y-114328949D01*
X139964210Y-114358243D01*
X139738090Y-114543815D01*
X139552518Y-114769935D01*
X139414625Y-115027915D01*
X139329711Y-115307838D01*
X139301039Y-115598949D01*
X139329711Y-115890060D01*
X139414625Y-116169983D01*
X139552518Y-116427963D01*
X139738090Y-116654083D01*
X139964210Y-116839655D01*
X140019015Y-116868949D01*
X139964210Y-116898243D01*
X139738090Y-117083815D01*
X139552518Y-117309935D01*
X139414625Y-117567915D01*
X139329711Y-117847838D01*
X139301039Y-118138949D01*
X139329711Y-118430060D01*
X139414625Y-118709983D01*
X139552518Y-118967963D01*
X139738090Y-119194083D01*
X139964210Y-119379655D01*
X140019015Y-119408949D01*
X139964210Y-119438243D01*
X139738090Y-119623815D01*
X139552518Y-119849935D01*
X139414625Y-120107915D01*
X139329711Y-120387838D01*
X139301039Y-120678949D01*
X139329711Y-120970060D01*
X139414625Y-121249983D01*
X139552518Y-121507963D01*
X139738090Y-121734083D01*
X139964210Y-121919655D01*
X140019015Y-121948949D01*
X139964210Y-121978243D01*
X139738090Y-122163815D01*
X139552518Y-122389935D01*
X139414625Y-122647915D01*
X139329711Y-122927838D01*
X139301039Y-123218949D01*
X139329711Y-123510060D01*
X139414625Y-123789983D01*
X139552518Y-124047963D01*
X139738090Y-124274083D01*
X139964210Y-124459655D01*
X140019015Y-124488949D01*
X139964210Y-124518243D01*
X139738090Y-124703815D01*
X139552518Y-124929935D01*
X139414625Y-125187915D01*
X139329711Y-125467838D01*
X139301039Y-125758949D01*
X139329711Y-126050060D01*
X139414625Y-126329983D01*
X139552518Y-126587963D01*
X139738090Y-126814083D01*
X139964210Y-126999655D01*
X140019015Y-127028949D01*
X139964210Y-127058243D01*
X139738090Y-127243815D01*
X139552518Y-127469935D01*
X139414625Y-127727915D01*
X139329711Y-128007838D01*
X139301039Y-128298949D01*
X139329711Y-128590060D01*
X139414625Y-128869983D01*
X139552518Y-129127963D01*
X139738090Y-129354083D01*
X139964210Y-129539655D01*
X140019015Y-129568949D01*
X139964210Y-129598243D01*
X139738090Y-129783815D01*
X139552518Y-130009935D01*
X139414625Y-130267915D01*
X139329711Y-130547838D01*
X139301039Y-130838949D01*
X139329711Y-131130060D01*
X139414625Y-131409983D01*
X139552518Y-131667963D01*
X139738090Y-131894083D01*
X139964210Y-132079655D01*
X140019015Y-132108949D01*
X139964210Y-132138243D01*
X139738090Y-132323815D01*
X139552518Y-132549935D01*
X139414625Y-132807915D01*
X139329711Y-133087838D01*
X139301039Y-133378949D01*
X139329711Y-133670060D01*
X139414625Y-133949983D01*
X139552518Y-134207963D01*
X139738090Y-134434083D01*
X139964210Y-134619655D01*
X140019015Y-134648949D01*
X139964210Y-134678243D01*
X139738090Y-134863815D01*
X139552518Y-135089935D01*
X139414625Y-135347915D01*
X139329711Y-135627838D01*
X139301039Y-135918949D01*
X139329711Y-136210060D01*
X139414625Y-136489983D01*
X139552518Y-136747963D01*
X139738090Y-136974083D01*
X139964210Y-137159655D01*
X140019015Y-137188949D01*
X139964210Y-137218243D01*
X139738090Y-137403815D01*
X139552518Y-137629935D01*
X139414625Y-137887915D01*
X139329711Y-138167838D01*
X139301039Y-138458949D01*
X139329711Y-138750060D01*
X139414625Y-139029983D01*
X139552518Y-139287963D01*
X139738090Y-139514083D01*
X139964210Y-139699655D01*
X140019015Y-139728949D01*
X139964210Y-139758243D01*
X139738090Y-139943815D01*
X139552518Y-140169935D01*
X139414625Y-140427915D01*
X139329711Y-140707838D01*
X139301039Y-140998949D01*
X139329711Y-141290060D01*
X139414625Y-141569983D01*
X139552518Y-141827963D01*
X139738090Y-142054083D01*
X139964210Y-142239655D01*
X140095816Y-142310000D01*
X118630632Y-142310000D01*
X118762238Y-142239655D01*
X118988358Y-142054083D01*
X119173930Y-141827963D01*
X119311823Y-141569983D01*
X119396737Y-141290060D01*
X119425409Y-140998949D01*
X119396737Y-140707838D01*
X119311823Y-140427915D01*
X119173930Y-140169935D01*
X118988358Y-139943815D01*
X118762238Y-139758243D01*
X118707433Y-139728949D01*
X118762238Y-139699655D01*
X118988358Y-139514083D01*
X119173930Y-139287963D01*
X119311823Y-139029983D01*
X119396737Y-138750060D01*
X119425409Y-138458949D01*
X119396737Y-138167838D01*
X119311823Y-137887915D01*
X119173930Y-137629935D01*
X118988358Y-137403815D01*
X118762238Y-137218243D01*
X118707433Y-137188949D01*
X118762238Y-137159655D01*
X118988358Y-136974083D01*
X119173930Y-136747963D01*
X119311823Y-136489983D01*
X119396737Y-136210060D01*
X119425409Y-135918949D01*
X119396737Y-135627838D01*
X119311823Y-135347915D01*
X119173930Y-135089935D01*
X118988358Y-134863815D01*
X118762238Y-134678243D01*
X118707433Y-134648949D01*
X118762238Y-134619655D01*
X118988358Y-134434083D01*
X119173930Y-134207963D01*
X119311823Y-133949983D01*
X119396737Y-133670060D01*
X119425409Y-133378949D01*
X119396737Y-133087838D01*
X119311823Y-132807915D01*
X119173930Y-132549935D01*
X118988358Y-132323815D01*
X118762238Y-132138243D01*
X118707433Y-132108949D01*
X118762238Y-132079655D01*
X118988358Y-131894083D01*
X119173930Y-131667963D01*
X119311823Y-131409983D01*
X119396737Y-131130060D01*
X119425409Y-130838949D01*
X119396737Y-130547838D01*
X119311823Y-130267915D01*
X119173930Y-130009935D01*
X118988358Y-129783815D01*
X118762238Y-129598243D01*
X118707433Y-129568949D01*
X118762238Y-129539655D01*
X118988358Y-129354083D01*
X119173930Y-129127963D01*
X119311823Y-128869983D01*
X119396737Y-128590060D01*
X119425409Y-128298949D01*
X119396737Y-128007838D01*
X119311823Y-127727915D01*
X119173930Y-127469935D01*
X118988358Y-127243815D01*
X118762238Y-127058243D01*
X118707433Y-127028949D01*
X118762238Y-126999655D01*
X118988358Y-126814083D01*
X119173930Y-126587963D01*
X119311823Y-126329983D01*
X119396737Y-126050060D01*
X119425409Y-125758949D01*
X119396737Y-125467838D01*
X119311823Y-125187915D01*
X119173930Y-124929935D01*
X118988358Y-124703815D01*
X118762238Y-124518243D01*
X118707433Y-124488949D01*
X118762238Y-124459655D01*
X118988358Y-124274083D01*
X119173930Y-124047963D01*
X119311823Y-123789983D01*
X119396737Y-123510060D01*
X119425409Y-123218949D01*
X119396737Y-122927838D01*
X119311823Y-122647915D01*
X119173930Y-122389935D01*
X118988358Y-122163815D01*
X118762238Y-121978243D01*
X118707433Y-121948949D01*
X118762238Y-121919655D01*
X118988358Y-121734083D01*
X119173930Y-121507963D01*
X119311823Y-121249983D01*
X119396737Y-120970060D01*
X119425409Y-120678949D01*
X119396737Y-120387838D01*
X119311823Y-120107915D01*
X119173930Y-119849935D01*
X118988358Y-119623815D01*
X118762238Y-119438243D01*
X118707433Y-119408949D01*
X118762238Y-119379655D01*
X118988358Y-119194083D01*
X119173930Y-118967963D01*
X119311823Y-118709983D01*
X119396737Y-118430060D01*
X119425409Y-118138949D01*
X119396737Y-117847838D01*
X119311823Y-117567915D01*
X119173930Y-117309935D01*
X118988358Y-117083815D01*
X118762238Y-116898243D01*
X118707433Y-116868949D01*
X118762238Y-116839655D01*
X118988358Y-116654083D01*
X119173930Y-116427963D01*
X119311823Y-116169983D01*
X119396737Y-115890060D01*
X119425409Y-115598949D01*
X119396737Y-115307838D01*
X119311823Y-115027915D01*
X119173930Y-114769935D01*
X118988358Y-114543815D01*
X118762238Y-114358243D01*
X118707433Y-114328949D01*
X118762238Y-114299655D01*
X118988358Y-114114083D01*
X119173930Y-113887963D01*
X119311823Y-113629983D01*
X119396737Y-113350060D01*
X119425409Y-113058949D01*
X119396737Y-112767838D01*
X119311823Y-112487915D01*
X119173930Y-112229935D01*
X118988358Y-112003815D01*
X118762238Y-111818243D01*
X118707433Y-111788949D01*
X118762238Y-111759655D01*
X118988358Y-111574083D01*
X119173930Y-111347963D01*
X119311823Y-111089983D01*
X119396737Y-110810060D01*
X119425409Y-110518949D01*
X119396737Y-110227838D01*
X119311823Y-109947915D01*
X119173930Y-109689935D01*
X118988358Y-109463815D01*
X118762238Y-109278243D01*
X118707433Y-109248949D01*
X118762238Y-109219655D01*
X118988358Y-109034083D01*
X119173930Y-108807963D01*
X119311823Y-108549983D01*
X119396737Y-108270060D01*
X119425409Y-107978949D01*
X119396737Y-107687838D01*
X119311823Y-107407915D01*
X119173930Y-107149935D01*
X118988358Y-106923815D01*
X118762238Y-106738243D01*
X118707433Y-106708949D01*
X118762238Y-106679655D01*
X118988358Y-106494083D01*
X119173930Y-106267963D01*
X119311823Y-106009983D01*
X119396737Y-105730060D01*
X119425409Y-105438949D01*
X119396737Y-105147838D01*
X119311823Y-104867915D01*
X119173930Y-104609935D01*
X118988358Y-104383815D01*
X118762238Y-104198243D01*
X118707433Y-104168949D01*
X118762238Y-104139655D01*
X118988358Y-103954083D01*
X119173930Y-103727963D01*
X119311823Y-103469983D01*
X119396737Y-103190060D01*
X119425409Y-102898949D01*
X119396737Y-102607838D01*
X119311823Y-102327915D01*
X119173930Y-102069935D01*
X118988358Y-101843815D01*
X118762238Y-101658243D01*
X118707433Y-101628949D01*
X118762238Y-101599655D01*
X118988358Y-101414083D01*
X119173930Y-101187963D01*
X119311823Y-100929983D01*
X119396737Y-100650060D01*
X119425409Y-100358949D01*
X119396737Y-100067838D01*
X119311823Y-99787915D01*
X119173930Y-99529935D01*
X118988358Y-99303815D01*
X118762238Y-99118243D01*
X118707433Y-99088949D01*
X118762238Y-99059655D01*
X118988358Y-98874083D01*
X119173930Y-98647963D01*
X119311823Y-98389983D01*
X119396737Y-98110060D01*
X119425409Y-97818949D01*
X119396737Y-97527838D01*
X119311823Y-97247915D01*
X119173930Y-96989935D01*
X118988358Y-96763815D01*
X118762238Y-96578243D01*
X118707433Y-96548949D01*
X118762238Y-96519655D01*
X118988358Y-96334083D01*
X119173930Y-96107963D01*
X119311823Y-95849983D01*
X119396737Y-95570060D01*
X119425409Y-95278949D01*
X119396737Y-94987838D01*
X119311823Y-94707915D01*
X119173930Y-94449935D01*
X118988358Y-94223815D01*
X118762238Y-94038243D01*
X118707433Y-94008949D01*
X118762238Y-93979655D01*
X118988358Y-93794083D01*
X119173930Y-93567963D01*
X119311823Y-93309983D01*
X119396737Y-93030060D01*
X119425409Y-92738949D01*
X119396737Y-92447838D01*
X119311823Y-92167915D01*
X119173930Y-91909935D01*
X118988358Y-91683815D01*
X118762238Y-91498243D01*
X118707433Y-91468949D01*
X118762238Y-91439655D01*
X118988358Y-91254083D01*
X119173930Y-91027963D01*
X119311823Y-90769983D01*
X119396737Y-90490060D01*
X119425409Y-90198949D01*
X119396737Y-89907838D01*
X119311823Y-89627915D01*
X119173930Y-89369935D01*
X118988358Y-89143815D01*
X118762238Y-88958243D01*
X118707433Y-88928949D01*
X118762238Y-88899655D01*
X118988358Y-88714083D01*
X119173930Y-88487963D01*
X119311823Y-88229983D01*
X119396737Y-87950060D01*
X119425409Y-87658949D01*
X119396737Y-87367838D01*
X119311823Y-87087915D01*
X119173930Y-86829935D01*
X118988358Y-86603815D01*
X118762238Y-86418243D01*
X118707433Y-86388949D01*
X118762238Y-86359655D01*
X118988358Y-86174083D01*
X119173930Y-85947963D01*
X119311823Y-85689983D01*
X119396737Y-85410060D01*
X119425409Y-85118949D01*
X119396737Y-84827838D01*
X119311823Y-84547915D01*
X119173930Y-84289935D01*
X118988358Y-84063815D01*
X118958537Y-84039342D01*
X119027404Y-84018451D01*
X119137718Y-83959486D01*
X119234409Y-83880134D01*
X119313761Y-83783443D01*
X119372726Y-83673129D01*
X119409036Y-83553431D01*
X119421296Y-83428949D01*
X119421296Y-81728949D01*
X119409036Y-81604467D01*
X119372726Y-81484769D01*
X119313761Y-81374455D01*
X119234409Y-81277764D01*
X119137718Y-81198412D01*
X119027404Y-81139447D01*
X118907706Y-81103137D01*
X118783224Y-81090877D01*
X117083224Y-81090877D01*
X116958742Y-81103137D01*
X116839044Y-81139447D01*
X116740000Y-81192388D01*
X116740000Y-80230000D01*
X141990000Y-80230000D01*
X141990000Y-81194287D01*
G36*
X141990001Y-142310000D02*
G01*
X141490632Y-142310000D01*
X141622238Y-142239655D01*
X141848358Y-142054083D01*
X141990001Y-141881491D01*
X141990001Y-142310000D01*
X141990001Y-142310000D01*
G37*
X141990001Y-142310000D02*
X141490632Y-142310000D01*
X141622238Y-142239655D01*
X141848358Y-142054083D01*
X141990001Y-141881491D01*
X141990001Y-142310000D01*
G36*
X141990001Y-140116407D02*
G01*
X141848358Y-139943815D01*
X141622238Y-139758243D01*
X141567433Y-139728949D01*
X141622238Y-139699655D01*
X141848358Y-139514083D01*
X141990001Y-139341491D01*
X141990001Y-140116407D01*
X141990001Y-140116407D01*
G37*
X141990001Y-140116407D02*
X141848358Y-139943815D01*
X141622238Y-139758243D01*
X141567433Y-139728949D01*
X141622238Y-139699655D01*
X141848358Y-139514083D01*
X141990001Y-139341491D01*
X141990001Y-140116407D01*
G36*
X116878090Y-139514083D02*
G01*
X117104210Y-139699655D01*
X117159015Y-139728949D01*
X117104210Y-139758243D01*
X116878090Y-139943815D01*
X116740000Y-140112078D01*
X116740000Y-139345820D01*
X116878090Y-139514083D01*
X116878090Y-139514083D01*
G37*
X116878090Y-139514083D02*
X117104210Y-139699655D01*
X117159015Y-139728949D01*
X117104210Y-139758243D01*
X116878090Y-139943815D01*
X116740000Y-140112078D01*
X116740000Y-139345820D01*
X116878090Y-139514083D01*
G36*
X141990001Y-137576407D02*
G01*
X141848358Y-137403815D01*
X141622238Y-137218243D01*
X141567433Y-137188949D01*
X141622238Y-137159655D01*
X141848358Y-136974083D01*
X141990001Y-136801491D01*
X141990001Y-137576407D01*
X141990001Y-137576407D01*
G37*
X141990001Y-137576407D02*
X141848358Y-137403815D01*
X141622238Y-137218243D01*
X141567433Y-137188949D01*
X141622238Y-137159655D01*
X141848358Y-136974083D01*
X141990001Y-136801491D01*
X141990001Y-137576407D01*
G36*
X116878090Y-136974083D02*
G01*
X117104210Y-137159655D01*
X117159015Y-137188949D01*
X117104210Y-137218243D01*
X116878090Y-137403815D01*
X116740000Y-137572078D01*
X116740000Y-136805820D01*
X116878090Y-136974083D01*
X116878090Y-136974083D01*
G37*
X116878090Y-136974083D02*
X117104210Y-137159655D01*
X117159015Y-137188949D01*
X117104210Y-137218243D01*
X116878090Y-137403815D01*
X116740000Y-137572078D01*
X116740000Y-136805820D01*
X116878090Y-136974083D01*
G36*
X141990001Y-135036407D02*
G01*
X141848358Y-134863815D01*
X141622238Y-134678243D01*
X141567433Y-134648949D01*
X141622238Y-134619655D01*
X141848358Y-134434083D01*
X141990001Y-134261491D01*
X141990001Y-135036407D01*
X141990001Y-135036407D01*
G37*
X141990001Y-135036407D02*
X141848358Y-134863815D01*
X141622238Y-134678243D01*
X141567433Y-134648949D01*
X141622238Y-134619655D01*
X141848358Y-134434083D01*
X141990001Y-134261491D01*
X141990001Y-135036407D01*
G36*
X116878090Y-134434083D02*
G01*
X117104210Y-134619655D01*
X117159015Y-134648949D01*
X117104210Y-134678243D01*
X116878090Y-134863815D01*
X116740000Y-135032078D01*
X116740000Y-134265820D01*
X116878090Y-134434083D01*
X116878090Y-134434083D01*
G37*
X116878090Y-134434083D02*
X117104210Y-134619655D01*
X117159015Y-134648949D01*
X117104210Y-134678243D01*
X116878090Y-134863815D01*
X116740000Y-135032078D01*
X116740000Y-134265820D01*
X116878090Y-134434083D01*
G36*
X141990001Y-132496407D02*
G01*
X141848358Y-132323815D01*
X141622238Y-132138243D01*
X141567433Y-132108949D01*
X141622238Y-132079655D01*
X141848358Y-131894083D01*
X141990001Y-131721491D01*
X141990001Y-132496407D01*
X141990001Y-132496407D01*
G37*
X141990001Y-132496407D02*
X141848358Y-132323815D01*
X141622238Y-132138243D01*
X141567433Y-132108949D01*
X141622238Y-132079655D01*
X141848358Y-131894083D01*
X141990001Y-131721491D01*
X141990001Y-132496407D01*
G36*
X116878090Y-131894083D02*
G01*
X117104210Y-132079655D01*
X117159015Y-132108949D01*
X117104210Y-132138243D01*
X116878090Y-132323815D01*
X116740000Y-132492078D01*
X116740000Y-131725820D01*
X116878090Y-131894083D01*
X116878090Y-131894083D01*
G37*
X116878090Y-131894083D02*
X117104210Y-132079655D01*
X117159015Y-132108949D01*
X117104210Y-132138243D01*
X116878090Y-132323815D01*
X116740000Y-132492078D01*
X116740000Y-131725820D01*
X116878090Y-131894083D01*
G36*
X141990001Y-129956407D02*
G01*
X141848358Y-129783815D01*
X141622238Y-129598243D01*
X141567433Y-129568949D01*
X141622238Y-129539655D01*
X141848358Y-129354083D01*
X141990001Y-129181491D01*
X141990001Y-129956407D01*
X141990001Y-129956407D01*
G37*
X141990001Y-129956407D02*
X141848358Y-129783815D01*
X141622238Y-129598243D01*
X141567433Y-129568949D01*
X141622238Y-129539655D01*
X141848358Y-129354083D01*
X141990001Y-129181491D01*
X141990001Y-129956407D01*
G36*
X116878090Y-129354083D02*
G01*
X117104210Y-129539655D01*
X117159015Y-129568949D01*
X117104210Y-129598243D01*
X116878090Y-129783815D01*
X116740000Y-129952078D01*
X116740000Y-129185820D01*
X116878090Y-129354083D01*
X116878090Y-129354083D01*
G37*
X116878090Y-129354083D02*
X117104210Y-129539655D01*
X117159015Y-129568949D01*
X117104210Y-129598243D01*
X116878090Y-129783815D01*
X116740000Y-129952078D01*
X116740000Y-129185820D01*
X116878090Y-129354083D01*
G36*
X141990001Y-127416407D02*
G01*
X141848358Y-127243815D01*
X141622238Y-127058243D01*
X141567433Y-127028949D01*
X141622238Y-126999655D01*
X141848358Y-126814083D01*
X141990001Y-126641491D01*
X141990001Y-127416407D01*
X141990001Y-127416407D01*
G37*
X141990001Y-127416407D02*
X141848358Y-127243815D01*
X141622238Y-127058243D01*
X141567433Y-127028949D01*
X141622238Y-126999655D01*
X141848358Y-126814083D01*
X141990001Y-126641491D01*
X141990001Y-127416407D01*
G36*
X116878090Y-126814083D02*
G01*
X117104210Y-126999655D01*
X117159015Y-127028949D01*
X117104210Y-127058243D01*
X116878090Y-127243815D01*
X116740000Y-127412078D01*
X116740000Y-126645820D01*
X116878090Y-126814083D01*
X116878090Y-126814083D01*
G37*
X116878090Y-126814083D02*
X117104210Y-126999655D01*
X117159015Y-127028949D01*
X117104210Y-127058243D01*
X116878090Y-127243815D01*
X116740000Y-127412078D01*
X116740000Y-126645820D01*
X116878090Y-126814083D01*
G36*
X141990001Y-124876407D02*
G01*
X141848358Y-124703815D01*
X141622238Y-124518243D01*
X141567433Y-124488949D01*
X141622238Y-124459655D01*
X141848358Y-124274083D01*
X141990001Y-124101491D01*
X141990001Y-124876407D01*
X141990001Y-124876407D01*
G37*
X141990001Y-124876407D02*
X141848358Y-124703815D01*
X141622238Y-124518243D01*
X141567433Y-124488949D01*
X141622238Y-124459655D01*
X141848358Y-124274083D01*
X141990001Y-124101491D01*
X141990001Y-124876407D01*
G36*
X116878090Y-124274083D02*
G01*
X117104210Y-124459655D01*
X117159015Y-124488949D01*
X117104210Y-124518243D01*
X116878090Y-124703815D01*
X116740000Y-124872078D01*
X116740000Y-124105820D01*
X116878090Y-124274083D01*
X116878090Y-124274083D01*
G37*
X116878090Y-124274083D02*
X117104210Y-124459655D01*
X117159015Y-124488949D01*
X117104210Y-124518243D01*
X116878090Y-124703815D01*
X116740000Y-124872078D01*
X116740000Y-124105820D01*
X116878090Y-124274083D01*
G36*
X141990001Y-122336407D02*
G01*
X141848358Y-122163815D01*
X141622238Y-121978243D01*
X141567433Y-121948949D01*
X141622238Y-121919655D01*
X141848358Y-121734083D01*
X141990001Y-121561491D01*
X141990001Y-122336407D01*
X141990001Y-122336407D01*
G37*
X141990001Y-122336407D02*
X141848358Y-122163815D01*
X141622238Y-121978243D01*
X141567433Y-121948949D01*
X141622238Y-121919655D01*
X141848358Y-121734083D01*
X141990001Y-121561491D01*
X141990001Y-122336407D01*
G36*
X116878090Y-121734083D02*
G01*
X117104210Y-121919655D01*
X117159015Y-121948949D01*
X117104210Y-121978243D01*
X116878090Y-122163815D01*
X116740000Y-122332078D01*
X116740000Y-121565820D01*
X116878090Y-121734083D01*
X116878090Y-121734083D01*
G37*
X116878090Y-121734083D02*
X117104210Y-121919655D01*
X117159015Y-121948949D01*
X117104210Y-121978243D01*
X116878090Y-122163815D01*
X116740000Y-122332078D01*
X116740000Y-121565820D01*
X116878090Y-121734083D01*
G36*
X141990001Y-119796407D02*
G01*
X141848358Y-119623815D01*
X141622238Y-119438243D01*
X141567433Y-119408949D01*
X141622238Y-119379655D01*
X141848358Y-119194083D01*
X141990001Y-119021491D01*
X141990001Y-119796407D01*
X141990001Y-119796407D01*
G37*
X141990001Y-119796407D02*
X141848358Y-119623815D01*
X141622238Y-119438243D01*
X141567433Y-119408949D01*
X141622238Y-119379655D01*
X141848358Y-119194083D01*
X141990001Y-119021491D01*
X141990001Y-119796407D01*
G36*
X116878090Y-119194083D02*
G01*
X117104210Y-119379655D01*
X117159015Y-119408949D01*
X117104210Y-119438243D01*
X116878090Y-119623815D01*
X116740000Y-119792078D01*
X116740000Y-119025820D01*
X116878090Y-119194083D01*
X116878090Y-119194083D01*
G37*
X116878090Y-119194083D02*
X117104210Y-119379655D01*
X117159015Y-119408949D01*
X117104210Y-119438243D01*
X116878090Y-119623815D01*
X116740000Y-119792078D01*
X116740000Y-119025820D01*
X116878090Y-119194083D01*
G36*
X141990001Y-117256407D02*
G01*
X141848358Y-117083815D01*
X141622238Y-116898243D01*
X141567433Y-116868949D01*
X141622238Y-116839655D01*
X141848358Y-116654083D01*
X141990001Y-116481491D01*
X141990001Y-117256407D01*
X141990001Y-117256407D01*
G37*
X141990001Y-117256407D02*
X141848358Y-117083815D01*
X141622238Y-116898243D01*
X141567433Y-116868949D01*
X141622238Y-116839655D01*
X141848358Y-116654083D01*
X141990001Y-116481491D01*
X141990001Y-117256407D01*
G36*
X116878090Y-116654083D02*
G01*
X117104210Y-116839655D01*
X117159015Y-116868949D01*
X117104210Y-116898243D01*
X116878090Y-117083815D01*
X116740000Y-117252078D01*
X116740000Y-116485820D01*
X116878090Y-116654083D01*
X116878090Y-116654083D01*
G37*
X116878090Y-116654083D02*
X117104210Y-116839655D01*
X117159015Y-116868949D01*
X117104210Y-116898243D01*
X116878090Y-117083815D01*
X116740000Y-117252078D01*
X116740000Y-116485820D01*
X116878090Y-116654083D01*
G36*
X141990001Y-114716407D02*
G01*
X141848358Y-114543815D01*
X141622238Y-114358243D01*
X141567433Y-114328949D01*
X141622238Y-114299655D01*
X141848358Y-114114083D01*
X141990001Y-113941491D01*
X141990001Y-114716407D01*
X141990001Y-114716407D01*
G37*
X141990001Y-114716407D02*
X141848358Y-114543815D01*
X141622238Y-114358243D01*
X141567433Y-114328949D01*
X141622238Y-114299655D01*
X141848358Y-114114083D01*
X141990001Y-113941491D01*
X141990001Y-114716407D01*
G36*
X116878090Y-114114083D02*
G01*
X117104210Y-114299655D01*
X117159015Y-114328949D01*
X117104210Y-114358243D01*
X116878090Y-114543815D01*
X116740000Y-114712078D01*
X116740000Y-113945820D01*
X116878090Y-114114083D01*
X116878090Y-114114083D01*
G37*
X116878090Y-114114083D02*
X117104210Y-114299655D01*
X117159015Y-114328949D01*
X117104210Y-114358243D01*
X116878090Y-114543815D01*
X116740000Y-114712078D01*
X116740000Y-113945820D01*
X116878090Y-114114083D01*
G36*
X141990001Y-112176407D02*
G01*
X141848358Y-112003815D01*
X141622238Y-111818243D01*
X141567433Y-111788949D01*
X141622238Y-111759655D01*
X141848358Y-111574083D01*
X141990001Y-111401491D01*
X141990001Y-112176407D01*
X141990001Y-112176407D01*
G37*
X141990001Y-112176407D02*
X141848358Y-112003815D01*
X141622238Y-111818243D01*
X141567433Y-111788949D01*
X141622238Y-111759655D01*
X141848358Y-111574083D01*
X141990001Y-111401491D01*
X141990001Y-112176407D01*
G36*
X116878090Y-111574083D02*
G01*
X117104210Y-111759655D01*
X117159015Y-111788949D01*
X117104210Y-111818243D01*
X116878090Y-112003815D01*
X116740000Y-112172078D01*
X116740000Y-111405820D01*
X116878090Y-111574083D01*
X116878090Y-111574083D01*
G37*
X116878090Y-111574083D02*
X117104210Y-111759655D01*
X117159015Y-111788949D01*
X117104210Y-111818243D01*
X116878090Y-112003815D01*
X116740000Y-112172078D01*
X116740000Y-111405820D01*
X116878090Y-111574083D01*
G36*
X141990000Y-109636407D02*
G01*
X141848358Y-109463815D01*
X141622238Y-109278243D01*
X141567433Y-109248949D01*
X141622238Y-109219655D01*
X141848358Y-109034083D01*
X141990000Y-108861491D01*
X141990000Y-109636407D01*
X141990000Y-109636407D01*
G37*
X141990000Y-109636407D02*
X141848358Y-109463815D01*
X141622238Y-109278243D01*
X141567433Y-109248949D01*
X141622238Y-109219655D01*
X141848358Y-109034083D01*
X141990000Y-108861491D01*
X141990000Y-109636407D01*
G36*
X116878090Y-109034083D02*
G01*
X117104210Y-109219655D01*
X117159015Y-109248949D01*
X117104210Y-109278243D01*
X116878090Y-109463815D01*
X116740000Y-109632078D01*
X116740000Y-108865820D01*
X116878090Y-109034083D01*
X116878090Y-109034083D01*
G37*
X116878090Y-109034083D02*
X117104210Y-109219655D01*
X117159015Y-109248949D01*
X117104210Y-109278243D01*
X116878090Y-109463815D01*
X116740000Y-109632078D01*
X116740000Y-108865820D01*
X116878090Y-109034083D01*
G36*
X141990000Y-107096407D02*
G01*
X141848358Y-106923815D01*
X141622238Y-106738243D01*
X141567433Y-106708949D01*
X141622238Y-106679655D01*
X141848358Y-106494083D01*
X141990000Y-106321491D01*
X141990000Y-107096407D01*
X141990000Y-107096407D01*
G37*
X141990000Y-107096407D02*
X141848358Y-106923815D01*
X141622238Y-106738243D01*
X141567433Y-106708949D01*
X141622238Y-106679655D01*
X141848358Y-106494083D01*
X141990000Y-106321491D01*
X141990000Y-107096407D01*
G36*
X116878090Y-106494083D02*
G01*
X117104210Y-106679655D01*
X117159015Y-106708949D01*
X117104210Y-106738243D01*
X116878090Y-106923815D01*
X116740000Y-107092078D01*
X116740000Y-106325820D01*
X116878090Y-106494083D01*
X116878090Y-106494083D01*
G37*
X116878090Y-106494083D02*
X117104210Y-106679655D01*
X117159015Y-106708949D01*
X117104210Y-106738243D01*
X116878090Y-106923815D01*
X116740000Y-107092078D01*
X116740000Y-106325820D01*
X116878090Y-106494083D01*
G36*
X141990000Y-104556407D02*
G01*
X141848358Y-104383815D01*
X141622238Y-104198243D01*
X141567433Y-104168949D01*
X141622238Y-104139655D01*
X141848358Y-103954083D01*
X141990000Y-103781491D01*
X141990000Y-104556407D01*
X141990000Y-104556407D01*
G37*
X141990000Y-104556407D02*
X141848358Y-104383815D01*
X141622238Y-104198243D01*
X141567433Y-104168949D01*
X141622238Y-104139655D01*
X141848358Y-103954083D01*
X141990000Y-103781491D01*
X141990000Y-104556407D01*
G36*
X116878090Y-103954083D02*
G01*
X117104210Y-104139655D01*
X117159015Y-104168949D01*
X117104210Y-104198243D01*
X116878090Y-104383815D01*
X116740000Y-104552078D01*
X116740000Y-103785820D01*
X116878090Y-103954083D01*
X116878090Y-103954083D01*
G37*
X116878090Y-103954083D02*
X117104210Y-104139655D01*
X117159015Y-104168949D01*
X117104210Y-104198243D01*
X116878090Y-104383815D01*
X116740000Y-104552078D01*
X116740000Y-103785820D01*
X116878090Y-103954083D01*
G36*
X141990000Y-102016407D02*
G01*
X141848358Y-101843815D01*
X141622238Y-101658243D01*
X141567433Y-101628949D01*
X141622238Y-101599655D01*
X141848358Y-101414083D01*
X141990000Y-101241491D01*
X141990000Y-102016407D01*
X141990000Y-102016407D01*
G37*
X141990000Y-102016407D02*
X141848358Y-101843815D01*
X141622238Y-101658243D01*
X141567433Y-101628949D01*
X141622238Y-101599655D01*
X141848358Y-101414083D01*
X141990000Y-101241491D01*
X141990000Y-102016407D01*
G36*
X116878090Y-101414083D02*
G01*
X117104210Y-101599655D01*
X117159015Y-101628949D01*
X117104210Y-101658243D01*
X116878090Y-101843815D01*
X116740000Y-102012078D01*
X116740000Y-101245820D01*
X116878090Y-101414083D01*
X116878090Y-101414083D01*
G37*
X116878090Y-101414083D02*
X117104210Y-101599655D01*
X117159015Y-101628949D01*
X117104210Y-101658243D01*
X116878090Y-101843815D01*
X116740000Y-102012078D01*
X116740000Y-101245820D01*
X116878090Y-101414083D01*
G36*
X141990000Y-99476407D02*
G01*
X141848358Y-99303815D01*
X141622238Y-99118243D01*
X141567433Y-99088949D01*
X141622238Y-99059655D01*
X141848358Y-98874083D01*
X141990000Y-98701491D01*
X141990000Y-99476407D01*
X141990000Y-99476407D01*
G37*
X141990000Y-99476407D02*
X141848358Y-99303815D01*
X141622238Y-99118243D01*
X141567433Y-99088949D01*
X141622238Y-99059655D01*
X141848358Y-98874083D01*
X141990000Y-98701491D01*
X141990000Y-99476407D01*
G36*
X116878090Y-98874083D02*
G01*
X117104210Y-99059655D01*
X117159015Y-99088949D01*
X117104210Y-99118243D01*
X116878090Y-99303815D01*
X116740000Y-99472078D01*
X116740000Y-98705820D01*
X116878090Y-98874083D01*
X116878090Y-98874083D01*
G37*
X116878090Y-98874083D02*
X117104210Y-99059655D01*
X117159015Y-99088949D01*
X117104210Y-99118243D01*
X116878090Y-99303815D01*
X116740000Y-99472078D01*
X116740000Y-98705820D01*
X116878090Y-98874083D01*
G36*
X141990000Y-96936407D02*
G01*
X141848358Y-96763815D01*
X141622238Y-96578243D01*
X141567433Y-96548949D01*
X141622238Y-96519655D01*
X141848358Y-96334083D01*
X141990000Y-96161492D01*
X141990000Y-96936407D01*
X141990000Y-96936407D01*
G37*
X141990000Y-96936407D02*
X141848358Y-96763815D01*
X141622238Y-96578243D01*
X141567433Y-96548949D01*
X141622238Y-96519655D01*
X141848358Y-96334083D01*
X141990000Y-96161492D01*
X141990000Y-96936407D01*
G36*
X116878090Y-96334083D02*
G01*
X117104210Y-96519655D01*
X117159015Y-96548949D01*
X117104210Y-96578243D01*
X116878090Y-96763815D01*
X116740000Y-96932078D01*
X116740000Y-96165820D01*
X116878090Y-96334083D01*
X116878090Y-96334083D01*
G37*
X116878090Y-96334083D02*
X117104210Y-96519655D01*
X117159015Y-96548949D01*
X117104210Y-96578243D01*
X116878090Y-96763815D01*
X116740000Y-96932078D01*
X116740000Y-96165820D01*
X116878090Y-96334083D01*
G36*
X141990000Y-94396406D02*
G01*
X141848358Y-94223815D01*
X141622238Y-94038243D01*
X141567433Y-94008949D01*
X141622238Y-93979655D01*
X141848358Y-93794083D01*
X141990000Y-93621492D01*
X141990000Y-94396406D01*
X141990000Y-94396406D01*
G37*
X141990000Y-94396406D02*
X141848358Y-94223815D01*
X141622238Y-94038243D01*
X141567433Y-94008949D01*
X141622238Y-93979655D01*
X141848358Y-93794083D01*
X141990000Y-93621492D01*
X141990000Y-94396406D01*
G36*
X116878090Y-93794083D02*
G01*
X117104210Y-93979655D01*
X117159015Y-94008949D01*
X117104210Y-94038243D01*
X116878090Y-94223815D01*
X116740000Y-94392078D01*
X116740000Y-93625820D01*
X116878090Y-93794083D01*
X116878090Y-93794083D01*
G37*
X116878090Y-93794083D02*
X117104210Y-93979655D01*
X117159015Y-94008949D01*
X117104210Y-94038243D01*
X116878090Y-94223815D01*
X116740000Y-94392078D01*
X116740000Y-93625820D01*
X116878090Y-93794083D01*
G36*
X141990000Y-91856406D02*
G01*
X141848358Y-91683815D01*
X141622238Y-91498243D01*
X141567433Y-91468949D01*
X141622238Y-91439655D01*
X141848358Y-91254083D01*
X141990000Y-91081492D01*
X141990000Y-91856406D01*
X141990000Y-91856406D01*
G37*
X141990000Y-91856406D02*
X141848358Y-91683815D01*
X141622238Y-91498243D01*
X141567433Y-91468949D01*
X141622238Y-91439655D01*
X141848358Y-91254083D01*
X141990000Y-91081492D01*
X141990000Y-91856406D01*
G36*
X116878090Y-91254083D02*
G01*
X117104210Y-91439655D01*
X117159015Y-91468949D01*
X117104210Y-91498243D01*
X116878090Y-91683815D01*
X116740000Y-91852078D01*
X116740000Y-91085820D01*
X116878090Y-91254083D01*
X116878090Y-91254083D01*
G37*
X116878090Y-91254083D02*
X117104210Y-91439655D01*
X117159015Y-91468949D01*
X117104210Y-91498243D01*
X116878090Y-91683815D01*
X116740000Y-91852078D01*
X116740000Y-91085820D01*
X116878090Y-91254083D01*
G36*
X141990000Y-89316406D02*
G01*
X141848358Y-89143815D01*
X141622238Y-88958243D01*
X141567433Y-88928949D01*
X141622238Y-88899655D01*
X141848358Y-88714083D01*
X141990000Y-88541492D01*
X141990000Y-89316406D01*
X141990000Y-89316406D01*
G37*
X141990000Y-89316406D02*
X141848358Y-89143815D01*
X141622238Y-88958243D01*
X141567433Y-88928949D01*
X141622238Y-88899655D01*
X141848358Y-88714083D01*
X141990000Y-88541492D01*
X141990000Y-89316406D01*
G36*
X116878090Y-88714083D02*
G01*
X117104210Y-88899655D01*
X117159015Y-88928949D01*
X117104210Y-88958243D01*
X116878090Y-89143815D01*
X116740000Y-89312078D01*
X116740000Y-88545820D01*
X116878090Y-88714083D01*
X116878090Y-88714083D01*
G37*
X116878090Y-88714083D02*
X117104210Y-88899655D01*
X117159015Y-88928949D01*
X117104210Y-88958243D01*
X116878090Y-89143815D01*
X116740000Y-89312078D01*
X116740000Y-88545820D01*
X116878090Y-88714083D01*
G36*
X141990000Y-86776406D02*
G01*
X141848358Y-86603815D01*
X141622238Y-86418243D01*
X141567433Y-86388949D01*
X141622238Y-86359655D01*
X141848358Y-86174083D01*
X141990000Y-86001492D01*
X141990000Y-86776406D01*
X141990000Y-86776406D01*
G37*
X141990000Y-86776406D02*
X141848358Y-86603815D01*
X141622238Y-86418243D01*
X141567433Y-86388949D01*
X141622238Y-86359655D01*
X141848358Y-86174083D01*
X141990000Y-86001492D01*
X141990000Y-86776406D01*
G36*
X116878090Y-86174083D02*
G01*
X117104210Y-86359655D01*
X117159015Y-86388949D01*
X117104210Y-86418243D01*
X116878090Y-86603815D01*
X116740000Y-86772078D01*
X116740000Y-86005820D01*
X116878090Y-86174083D01*
X116878090Y-86174083D01*
G37*
X116878090Y-86174083D02*
X117104210Y-86359655D01*
X117159015Y-86388949D01*
X117104210Y-86418243D01*
X116878090Y-86603815D01*
X116740000Y-86772078D01*
X116740000Y-86005820D01*
X116878090Y-86174083D01*
G36*
X141990000Y-84236406D02*
G01*
X141848358Y-84063815D01*
X141818537Y-84039342D01*
X141887404Y-84018451D01*
X141990000Y-83963611D01*
X141990000Y-84236406D01*
X141990000Y-84236406D01*
G37*
X141990000Y-84236406D02*
X141848358Y-84063815D01*
X141818537Y-84039342D01*
X141887404Y-84018451D01*
X141990000Y-83963611D01*
X141990000Y-84236406D01*
G36*
X116839044Y-84018451D02*
G01*
X116907911Y-84039342D01*
X116878090Y-84063815D01*
X116740000Y-84232078D01*
X116740000Y-83965510D01*
X116839044Y-84018451D01*
X116839044Y-84018451D01*
G37*
X116839044Y-84018451D02*
X116907911Y-84039342D01*
X116878090Y-84063815D01*
X116740000Y-84232078D01*
X116740000Y-83965510D01*
X116839044Y-84018451D01*
M02*
