G04 #@! TF.GenerationSoftware,KiCad,Pcbnew,(5.0.0-3-g5ebb6b6)*
G04 #@! TF.CreationDate,2018-07-29T14:18:39+10:00*
G04 #@! TF.ProjectId,ETE006-CM119B-Breatout,4554453030362D434D313139422D4272,1*
G04 #@! TF.SameCoordinates,Original*
G04 #@! TF.FileFunction,Copper,L1,Top,Signal*
G04 #@! TF.FilePolarity,Positive*
%FSLAX46Y46*%
G04 Gerber Fmt 4.6, Leading zero omitted, Abs format (unit mm)*
G04 Created by KiCad (PCBNEW (5.0.0-3-g5ebb6b6)) date Sunday, 29 July 2018 at 02:18:39 PM*
%MOMM*%
%LPD*%
G01*
G04 APERTURE LIST*
G04 #@! TA.AperFunction,ComponentPad*
%ADD10R,1.700000X1.700000*%
G04 #@! TD*
G04 #@! TA.AperFunction,ComponentPad*
%ADD11O,1.700000X1.700000*%
G04 #@! TD*
G04 #@! TA.AperFunction,SMDPad,CuDef*
%ADD12C,0.250000*%
G04 #@! TD*
G04 #@! TA.AperFunction,Conductor*
%ADD13C,0.100000*%
G04 #@! TD*
G04 #@! TA.AperFunction,Conductor*
%ADD14C,0.250000*%
G04 #@! TD*
G04 APERTURE END LIST*
D10*
G04 #@! TO.P,J1,1*
G04 #@! TO.N,SPDIFO*
X117933224Y-82578949D03*
D11*
G04 #@! TO.P,J1,2*
G04 #@! TO.N,D_IN*
X117933224Y-85118949D03*
G04 #@! TO.P,J1,3*
G04 #@! TO.N,D_OUT*
X117933224Y-87658949D03*
G04 #@! TO.P,J1,4*
G04 #@! TO.N,SK*
X117933224Y-90198949D03*
G04 #@! TO.P,J1,5*
G04 #@! TO.N,~CS*
X117933224Y-92738949D03*
G04 #@! TO.P,J1,6*
G04 #@! TO.N,MUTE_REC*
X117933224Y-95278949D03*
G04 #@! TO.P,J1,7*
G04 #@! TO.N,PWRSEL*
X117933224Y-97818949D03*
G04 #@! TO.P,J1,8*
G04 #@! TO.N,DREG18*
X117933224Y-100358949D03*
G04 #@! TO.P,J1,9*
G04 #@! TO.N,DREG33*
X117933224Y-102898949D03*
G04 #@! TO.P,J1,10*
G04 #@! TO.N,MODE*
X117933224Y-105438949D03*
G04 #@! TO.P,J1,11*
G04 #@! TO.N,GPIO2*
X117933224Y-107978949D03*
G04 #@! TO.P,J1,12*
G04 #@! TO.N,LED_O*
X117933224Y-110518949D03*
G04 #@! TO.P,J1,13*
G04 #@! TO.N,GPIO3*
X117933224Y-113058949D03*
G04 #@! TO.P,J1,14*
G04 #@! TO.N,DVSS_1*
X117933224Y-115598949D03*
G04 #@! TO.P,J1,15*
G04 #@! TO.N,GPIO4*
X117933224Y-118138949D03*
G04 #@! TO.P,J1,16*
G04 #@! TO.N,GPIO5*
X117933224Y-120678949D03*
G04 #@! TO.P,J1,17*
G04 #@! TO.N,GPIO6*
X117933224Y-123218949D03*
G04 #@! TO.P,J1,18*
G04 #@! TO.N,MUTE_PLAY*
X117933224Y-125758949D03*
G04 #@! TO.P,J1,19*
G04 #@! TO.N,BUZZ*
X117933224Y-128298949D03*
G04 #@! TO.P,J1,20*
G04 #@! TO.N,GPIO7*
X117933224Y-130838949D03*
G04 #@! TO.P,J1,21*
G04 #@! TO.N,LED_R*
X117933224Y-133378949D03*
G04 #@! TO.P,J1,22*
G04 #@! TO.N,GPIO8*
X117933224Y-135918949D03*
G04 #@! TO.P,J1,23*
G04 #@! TO.N,TEST*
X117933224Y-138458949D03*
G04 #@! TO.P,J1,24*
G04 #@! TO.N,AVSS_1*
X117933224Y-140998949D03*
G04 #@! TD*
G04 #@! TO.P,J2,24*
G04 #@! TO.N,VBIAS*
X140793224Y-140998949D03*
G04 #@! TO.P,J2,23*
G04 #@! TO.N,VREF*
X140793224Y-138458949D03*
G04 #@! TO.P,J2,22*
G04 #@! TO.N,MIC_IN*
X140793224Y-135918949D03*
G04 #@! TO.P,J2,21*
G04 #@! TO.N,Net-(J2-Pad21)*
X140793224Y-133378949D03*
G04 #@! TO.P,J2,20*
G04 #@! TO.N,AVDD_2*
X140793224Y-130838949D03*
G04 #@! TO.P,J2,19*
G04 #@! TO.N,LO_LEFT*
X140793224Y-128298949D03*
G04 #@! TO.P,J2,18*
G04 #@! TO.N,LO_BIAS*
X140793224Y-125758949D03*
G04 #@! TO.P,J2,17*
G04 #@! TO.N,LO_RIGHT*
X140793224Y-123218949D03*
G04 #@! TO.P,J2,16*
G04 #@! TO.N,AVSS_2*
X140793224Y-120678949D03*
G04 #@! TO.P,J2,15*
G04 #@! TO.N,AVDD_1*
X140793224Y-118138949D03*
G04 #@! TO.P,J2,14*
G04 #@! TO.N,DVDD*
X140793224Y-115598949D03*
G04 #@! TO.P,J2,13*
G04 #@! TO.N,DVSS_2*
X140793224Y-113058949D03*
G04 #@! TO.P,J2,12*
G04 #@! TO.N,AREG36*
X140793224Y-110518949D03*
G04 #@! TO.P,J2,11*
G04 #@! TO.N,MSEL*
X140793224Y-107978949D03*
G04 #@! TO.P,J2,10*
G04 #@! TO.N,VOL_UP*
X140793224Y-105438949D03*
G04 #@! TO.P,J2,9*
G04 #@! TO.N,PDSW*
X140793224Y-102898949D03*
G04 #@! TO.P,J2,8*
G04 #@! TO.N,USB_D+*
X140793224Y-100358949D03*
G04 #@! TO.P,J2,7*
G04 #@! TO.N,USB_D-*
X140793224Y-97818949D03*
G04 #@! TO.P,J2,6*
G04 #@! TO.N,GPIO1*
X140793224Y-95278949D03*
G04 #@! TO.P,J2,5*
G04 #@! TO.N,SCLK*
X140793224Y-92738949D03*
G04 #@! TO.P,J2,4*
G04 #@! TO.N,MINT*
X140793224Y-90198949D03*
G04 #@! TO.P,J2,3*
G04 #@! TO.N,SDAT*
X140793224Y-87658949D03*
G04 #@! TO.P,J2,2*
G04 #@! TO.N,MCLK*
X140793224Y-85118949D03*
D10*
G04 #@! TO.P,J2,1*
G04 #@! TO.N,VOL_DN*
X140793224Y-82578949D03*
G04 #@! TD*
D12*
G04 #@! TO.P,U1,1*
G04 #@! TO.N,SPDIFO*
X128231853Y-105498491D03*
D13*
G04 #@! TD*
G04 #@! TO.N,SPDIFO*
G04 #@! TO.C,U1*
G36*
X127683845Y-105127260D02*
X127860622Y-104950483D01*
X128779861Y-105869722D01*
X128603084Y-106046499D01*
X127683845Y-105127260D01*
X127683845Y-105127260D01*
G37*
D12*
G04 #@! TO.P,U1,2*
G04 #@! TO.N,D_IN*
X127878300Y-105852044D03*
D13*
G04 #@! TD*
G04 #@! TO.N,D_IN*
G04 #@! TO.C,U1*
G36*
X127330292Y-105480813D02*
X127507069Y-105304036D01*
X128426308Y-106223275D01*
X128249531Y-106400052D01*
X127330292Y-105480813D01*
X127330292Y-105480813D01*
G37*
D12*
G04 #@! TO.P,U1,3*
G04 #@! TO.N,D_OUT*
X127524746Y-106205598D03*
D13*
G04 #@! TD*
G04 #@! TO.N,D_OUT*
G04 #@! TO.C,U1*
G36*
X126976738Y-105834367D02*
X127153515Y-105657590D01*
X128072754Y-106576829D01*
X127895977Y-106753606D01*
X126976738Y-105834367D01*
X126976738Y-105834367D01*
G37*
D12*
G04 #@! TO.P,U1,4*
G04 #@! TO.N,SK*
X127171193Y-106559151D03*
D13*
G04 #@! TD*
G04 #@! TO.N,SK*
G04 #@! TO.C,U1*
G36*
X126623185Y-106187920D02*
X126799962Y-106011143D01*
X127719201Y-106930382D01*
X127542424Y-107107159D01*
X126623185Y-106187920D01*
X126623185Y-106187920D01*
G37*
D12*
G04 #@! TO.P,U1,5*
G04 #@! TO.N,~CS*
X126817640Y-106912704D03*
D13*
G04 #@! TD*
G04 #@! TO.N,~CS*
G04 #@! TO.C,U1*
G36*
X126269632Y-106541473D02*
X126446409Y-106364696D01*
X127365648Y-107283935D01*
X127188871Y-107460712D01*
X126269632Y-106541473D01*
X126269632Y-106541473D01*
G37*
D12*
G04 #@! TO.P,U1,6*
G04 #@! TO.N,MUTE_REC*
X126464086Y-107266258D03*
D13*
G04 #@! TD*
G04 #@! TO.N,MUTE_REC*
G04 #@! TO.C,U1*
G36*
X125916078Y-106895027D02*
X126092855Y-106718250D01*
X127012094Y-107637489D01*
X126835317Y-107814266D01*
X125916078Y-106895027D01*
X125916078Y-106895027D01*
G37*
D12*
G04 #@! TO.P,U1,7*
G04 #@! TO.N,PWRSEL*
X126110533Y-107619811D03*
D13*
G04 #@! TD*
G04 #@! TO.N,PWRSEL*
G04 #@! TO.C,U1*
G36*
X125562525Y-107248580D02*
X125739302Y-107071803D01*
X126658541Y-107991042D01*
X126481764Y-108167819D01*
X125562525Y-107248580D01*
X125562525Y-107248580D01*
G37*
D12*
G04 #@! TO.P,U1,8*
G04 #@! TO.N,DREG18*
X125756979Y-107973365D03*
D13*
G04 #@! TD*
G04 #@! TO.N,DREG18*
G04 #@! TO.C,U1*
G36*
X125208971Y-107602134D02*
X125385748Y-107425357D01*
X126304987Y-108344596D01*
X126128210Y-108521373D01*
X125208971Y-107602134D01*
X125208971Y-107602134D01*
G37*
D12*
G04 #@! TO.P,U1,9*
G04 #@! TO.N,DREG33*
X125403426Y-108326918D03*
D13*
G04 #@! TD*
G04 #@! TO.N,DREG33*
G04 #@! TO.C,U1*
G36*
X124855418Y-107955687D02*
X125032195Y-107778910D01*
X125951434Y-108698149D01*
X125774657Y-108874926D01*
X124855418Y-107955687D01*
X124855418Y-107955687D01*
G37*
D12*
G04 #@! TO.P,U1,10*
G04 #@! TO.N,MODE*
X125049873Y-108680471D03*
D13*
G04 #@! TD*
G04 #@! TO.N,MODE*
G04 #@! TO.C,U1*
G36*
X124501865Y-108309240D02*
X124678642Y-108132463D01*
X125597881Y-109051702D01*
X125421104Y-109228479D01*
X124501865Y-108309240D01*
X124501865Y-108309240D01*
G37*
D12*
G04 #@! TO.P,U1,11*
G04 #@! TO.N,GPIO2*
X124696319Y-109034025D03*
D13*
G04 #@! TD*
G04 #@! TO.N,GPIO2*
G04 #@! TO.C,U1*
G36*
X124148311Y-108662794D02*
X124325088Y-108486017D01*
X125244327Y-109405256D01*
X125067550Y-109582033D01*
X124148311Y-108662794D01*
X124148311Y-108662794D01*
G37*
D12*
G04 #@! TO.P,U1,12*
G04 #@! TO.N,LED_O*
X124342766Y-109387578D03*
D13*
G04 #@! TD*
G04 #@! TO.N,LED_O*
G04 #@! TO.C,U1*
G36*
X123794758Y-109016347D02*
X123971535Y-108839570D01*
X124890774Y-109758809D01*
X124713997Y-109935586D01*
X123794758Y-109016347D01*
X123794758Y-109016347D01*
G37*
D12*
G04 #@! TO.P,U1,13*
G04 #@! TO.N,GPIO3*
X124342766Y-111650320D03*
D13*
G04 #@! TD*
G04 #@! TO.N,GPIO3*
G04 #@! TO.C,U1*
G36*
X123971535Y-112198328D02*
X123794758Y-112021551D01*
X124713997Y-111102312D01*
X124890774Y-111279089D01*
X123971535Y-112198328D01*
X123971535Y-112198328D01*
G37*
D12*
G04 #@! TO.P,U1,14*
G04 #@! TO.N,DVSS_1*
X124696319Y-112003873D03*
D13*
G04 #@! TD*
G04 #@! TO.N,DVSS_1*
G04 #@! TO.C,U1*
G36*
X124325088Y-112551881D02*
X124148311Y-112375104D01*
X125067550Y-111455865D01*
X125244327Y-111632642D01*
X124325088Y-112551881D01*
X124325088Y-112551881D01*
G37*
D12*
G04 #@! TO.P,U1,15*
G04 #@! TO.N,GPIO4*
X125049873Y-112357427D03*
D13*
G04 #@! TD*
G04 #@! TO.N,GPIO4*
G04 #@! TO.C,U1*
G36*
X124678642Y-112905435D02*
X124501865Y-112728658D01*
X125421104Y-111809419D01*
X125597881Y-111986196D01*
X124678642Y-112905435D01*
X124678642Y-112905435D01*
G37*
D12*
G04 #@! TO.P,U1,16*
G04 #@! TO.N,GPIO5*
X125403426Y-112710980D03*
D13*
G04 #@! TD*
G04 #@! TO.N,GPIO5*
G04 #@! TO.C,U1*
G36*
X125032195Y-113258988D02*
X124855418Y-113082211D01*
X125774657Y-112162972D01*
X125951434Y-112339749D01*
X125032195Y-113258988D01*
X125032195Y-113258988D01*
G37*
D12*
G04 #@! TO.P,U1,17*
G04 #@! TO.N,GPIO6*
X125756979Y-113064533D03*
D13*
G04 #@! TD*
G04 #@! TO.N,GPIO6*
G04 #@! TO.C,U1*
G36*
X125385748Y-113612541D02*
X125208971Y-113435764D01*
X126128210Y-112516525D01*
X126304987Y-112693302D01*
X125385748Y-113612541D01*
X125385748Y-113612541D01*
G37*
D12*
G04 #@! TO.P,U1,18*
G04 #@! TO.N,MUTE_PLAY*
X126110533Y-113418087D03*
D13*
G04 #@! TD*
G04 #@! TO.N,MUTE_PLAY*
G04 #@! TO.C,U1*
G36*
X125739302Y-113966095D02*
X125562525Y-113789318D01*
X126481764Y-112870079D01*
X126658541Y-113046856D01*
X125739302Y-113966095D01*
X125739302Y-113966095D01*
G37*
D12*
G04 #@! TO.P,U1,19*
G04 #@! TO.N,BUZZ*
X126464086Y-113771640D03*
D13*
G04 #@! TD*
G04 #@! TO.N,BUZZ*
G04 #@! TO.C,U1*
G36*
X126092855Y-114319648D02*
X125916078Y-114142871D01*
X126835317Y-113223632D01*
X127012094Y-113400409D01*
X126092855Y-114319648D01*
X126092855Y-114319648D01*
G37*
D12*
G04 #@! TO.P,U1,20*
G04 #@! TO.N,GPIO7*
X126817640Y-114125194D03*
D13*
G04 #@! TD*
G04 #@! TO.N,GPIO7*
G04 #@! TO.C,U1*
G36*
X126446409Y-114673202D02*
X126269632Y-114496425D01*
X127188871Y-113577186D01*
X127365648Y-113753963D01*
X126446409Y-114673202D01*
X126446409Y-114673202D01*
G37*
D12*
G04 #@! TO.P,U1,21*
G04 #@! TO.N,LED_R*
X127171193Y-114478747D03*
D13*
G04 #@! TD*
G04 #@! TO.N,LED_R*
G04 #@! TO.C,U1*
G36*
X126799962Y-115026755D02*
X126623185Y-114849978D01*
X127542424Y-113930739D01*
X127719201Y-114107516D01*
X126799962Y-115026755D01*
X126799962Y-115026755D01*
G37*
D12*
G04 #@! TO.P,U1,22*
G04 #@! TO.N,GPIO8*
X127524746Y-114832300D03*
D13*
G04 #@! TD*
G04 #@! TO.N,GPIO8*
G04 #@! TO.C,U1*
G36*
X127153515Y-115380308D02*
X126976738Y-115203531D01*
X127895977Y-114284292D01*
X128072754Y-114461069D01*
X127153515Y-115380308D01*
X127153515Y-115380308D01*
G37*
D12*
G04 #@! TO.P,U1,23*
G04 #@! TO.N,TEST*
X127878300Y-115185854D03*
D13*
G04 #@! TD*
G04 #@! TO.N,TEST*
G04 #@! TO.C,U1*
G36*
X127507069Y-115733862D02*
X127330292Y-115557085D01*
X128249531Y-114637846D01*
X128426308Y-114814623D01*
X127507069Y-115733862D01*
X127507069Y-115733862D01*
G37*
D12*
G04 #@! TO.P,U1,24*
G04 #@! TO.N,AVSS_1*
X128231853Y-115539407D03*
D13*
G04 #@! TD*
G04 #@! TO.N,AVSS_1*
G04 #@! TO.C,U1*
G36*
X127860622Y-116087415D02*
X127683845Y-115910638D01*
X128603084Y-114991399D01*
X128779861Y-115168176D01*
X127860622Y-116087415D01*
X127860622Y-116087415D01*
G37*
D12*
G04 #@! TO.P,U1,25*
G04 #@! TO.N,VBIAS*
X130494595Y-115539407D03*
D13*
G04 #@! TD*
G04 #@! TO.N,VBIAS*
G04 #@! TO.C,U1*
G36*
X129946587Y-115168176D02*
X130123364Y-114991399D01*
X131042603Y-115910638D01*
X130865826Y-116087415D01*
X129946587Y-115168176D01*
X129946587Y-115168176D01*
G37*
D12*
G04 #@! TO.P,U1,26*
G04 #@! TO.N,VREF*
X130848148Y-115185854D03*
D13*
G04 #@! TD*
G04 #@! TO.N,VREF*
G04 #@! TO.C,U1*
G36*
X130300140Y-114814623D02*
X130476917Y-114637846D01*
X131396156Y-115557085D01*
X131219379Y-115733862D01*
X130300140Y-114814623D01*
X130300140Y-114814623D01*
G37*
D12*
G04 #@! TO.P,U1,27*
G04 #@! TO.N,MIC_IN*
X131201702Y-114832300D03*
D13*
G04 #@! TD*
G04 #@! TO.N,MIC_IN*
G04 #@! TO.C,U1*
G36*
X130653694Y-114461069D02*
X130830471Y-114284292D01*
X131749710Y-115203531D01*
X131572933Y-115380308D01*
X130653694Y-114461069D01*
X130653694Y-114461069D01*
G37*
D12*
G04 #@! TO.P,U1,28*
G04 #@! TO.N,Net-(U1-Pad28)*
X131555255Y-114478747D03*
D13*
G04 #@! TD*
G04 #@! TO.N,Net-(U1-Pad28)*
G04 #@! TO.C,U1*
G36*
X131007247Y-114107516D02*
X131184024Y-113930739D01*
X132103263Y-114849978D01*
X131926486Y-115026755D01*
X131007247Y-114107516D01*
X131007247Y-114107516D01*
G37*
D12*
G04 #@! TO.P,U1,29*
G04 #@! TO.N,AVDD_2*
X131908808Y-114125194D03*
D13*
G04 #@! TD*
G04 #@! TO.N,AVDD_2*
G04 #@! TO.C,U1*
G36*
X131360800Y-113753963D02*
X131537577Y-113577186D01*
X132456816Y-114496425D01*
X132280039Y-114673202D01*
X131360800Y-113753963D01*
X131360800Y-113753963D01*
G37*
D12*
G04 #@! TO.P,U1,30*
G04 #@! TO.N,LO_LEFT*
X132262362Y-113771640D03*
D13*
G04 #@! TD*
G04 #@! TO.N,LO_LEFT*
G04 #@! TO.C,U1*
G36*
X131714354Y-113400409D02*
X131891131Y-113223632D01*
X132810370Y-114142871D01*
X132633593Y-114319648D01*
X131714354Y-113400409D01*
X131714354Y-113400409D01*
G37*
D12*
G04 #@! TO.P,U1,31*
G04 #@! TO.N,LO_BIAS*
X132615915Y-113418087D03*
D13*
G04 #@! TD*
G04 #@! TO.N,LO_BIAS*
G04 #@! TO.C,U1*
G36*
X132067907Y-113046856D02*
X132244684Y-112870079D01*
X133163923Y-113789318D01*
X132987146Y-113966095D01*
X132067907Y-113046856D01*
X132067907Y-113046856D01*
G37*
D12*
G04 #@! TO.P,U1,32*
G04 #@! TO.N,LO_RIGHT*
X132969469Y-113064533D03*
D13*
G04 #@! TD*
G04 #@! TO.N,LO_RIGHT*
G04 #@! TO.C,U1*
G36*
X132421461Y-112693302D02*
X132598238Y-112516525D01*
X133517477Y-113435764D01*
X133340700Y-113612541D01*
X132421461Y-112693302D01*
X132421461Y-112693302D01*
G37*
D12*
G04 #@! TO.P,U1,33*
G04 #@! TO.N,AVSS_2*
X133323022Y-112710980D03*
D13*
G04 #@! TD*
G04 #@! TO.N,AVSS_2*
G04 #@! TO.C,U1*
G36*
X132775014Y-112339749D02*
X132951791Y-112162972D01*
X133871030Y-113082211D01*
X133694253Y-113258988D01*
X132775014Y-112339749D01*
X132775014Y-112339749D01*
G37*
D12*
G04 #@! TO.P,U1,34*
G04 #@! TO.N,AVDD_1*
X133676575Y-112357427D03*
D13*
G04 #@! TD*
G04 #@! TO.N,AVDD_1*
G04 #@! TO.C,U1*
G36*
X133128567Y-111986196D02*
X133305344Y-111809419D01*
X134224583Y-112728658D01*
X134047806Y-112905435D01*
X133128567Y-111986196D01*
X133128567Y-111986196D01*
G37*
D12*
G04 #@! TO.P,U1,35*
G04 #@! TO.N,DVDD*
X134030129Y-112003873D03*
D13*
G04 #@! TD*
G04 #@! TO.N,DVDD*
G04 #@! TO.C,U1*
G36*
X133482121Y-111632642D02*
X133658898Y-111455865D01*
X134578137Y-112375104D01*
X134401360Y-112551881D01*
X133482121Y-111632642D01*
X133482121Y-111632642D01*
G37*
D12*
G04 #@! TO.P,U1,36*
G04 #@! TO.N,DVSS_2*
X134383682Y-111650320D03*
D13*
G04 #@! TD*
G04 #@! TO.N,DVSS_2*
G04 #@! TO.C,U1*
G36*
X133835674Y-111279089D02*
X134012451Y-111102312D01*
X134931690Y-112021551D01*
X134754913Y-112198328D01*
X133835674Y-111279089D01*
X133835674Y-111279089D01*
G37*
D12*
G04 #@! TO.P,U1,37*
G04 #@! TO.N,AREG36*
X134383682Y-109387578D03*
D13*
G04 #@! TD*
G04 #@! TO.N,AREG36*
G04 #@! TO.C,U1*
G36*
X134012451Y-109935586D02*
X133835674Y-109758809D01*
X134754913Y-108839570D01*
X134931690Y-109016347D01*
X134012451Y-109935586D01*
X134012451Y-109935586D01*
G37*
D12*
G04 #@! TO.P,U1,38*
G04 #@! TO.N,MSEL*
X134030129Y-109034025D03*
D13*
G04 #@! TD*
G04 #@! TO.N,MSEL*
G04 #@! TO.C,U1*
G36*
X133658898Y-109582033D02*
X133482121Y-109405256D01*
X134401360Y-108486017D01*
X134578137Y-108662794D01*
X133658898Y-109582033D01*
X133658898Y-109582033D01*
G37*
D12*
G04 #@! TO.P,U1,39*
G04 #@! TO.N,VOL_UP*
X133676575Y-108680471D03*
D13*
G04 #@! TD*
G04 #@! TO.N,VOL_UP*
G04 #@! TO.C,U1*
G36*
X133305344Y-109228479D02*
X133128567Y-109051702D01*
X134047806Y-108132463D01*
X134224583Y-108309240D01*
X133305344Y-109228479D01*
X133305344Y-109228479D01*
G37*
D12*
G04 #@! TO.P,U1,40*
G04 #@! TO.N,PDSW*
X133323022Y-108326918D03*
D13*
G04 #@! TD*
G04 #@! TO.N,PDSW*
G04 #@! TO.C,U1*
G36*
X132951791Y-108874926D02*
X132775014Y-108698149D01*
X133694253Y-107778910D01*
X133871030Y-107955687D01*
X132951791Y-108874926D01*
X132951791Y-108874926D01*
G37*
D12*
G04 #@! TO.P,U1,41*
G04 #@! TO.N,USB_D+*
X132969469Y-107973365D03*
D13*
G04 #@! TD*
G04 #@! TO.N,USB_D+*
G04 #@! TO.C,U1*
G36*
X132598238Y-108521373D02*
X132421461Y-108344596D01*
X133340700Y-107425357D01*
X133517477Y-107602134D01*
X132598238Y-108521373D01*
X132598238Y-108521373D01*
G37*
D12*
G04 #@! TO.P,U1,42*
G04 #@! TO.N,USB_D-*
X132615915Y-107619811D03*
D13*
G04 #@! TD*
G04 #@! TO.N,USB_D-*
G04 #@! TO.C,U1*
G36*
X132244684Y-108167819D02*
X132067907Y-107991042D01*
X132987146Y-107071803D01*
X133163923Y-107248580D01*
X132244684Y-108167819D01*
X132244684Y-108167819D01*
G37*
D12*
G04 #@! TO.P,U1,43*
G04 #@! TO.N,GPIO1*
X132262362Y-107266258D03*
D13*
G04 #@! TD*
G04 #@! TO.N,GPIO1*
G04 #@! TO.C,U1*
G36*
X131891131Y-107814266D02*
X131714354Y-107637489D01*
X132633593Y-106718250D01*
X132810370Y-106895027D01*
X131891131Y-107814266D01*
X131891131Y-107814266D01*
G37*
D12*
G04 #@! TO.P,U1,44*
G04 #@! TO.N,SCLK*
X131908808Y-106912704D03*
D13*
G04 #@! TD*
G04 #@! TO.N,SCLK*
G04 #@! TO.C,U1*
G36*
X131537577Y-107460712D02*
X131360800Y-107283935D01*
X132280039Y-106364696D01*
X132456816Y-106541473D01*
X131537577Y-107460712D01*
X131537577Y-107460712D01*
G37*
D12*
G04 #@! TO.P,U1,45*
G04 #@! TO.N,MINT*
X131555255Y-106559151D03*
D13*
G04 #@! TD*
G04 #@! TO.N,MINT*
G04 #@! TO.C,U1*
G36*
X131184024Y-107107159D02*
X131007247Y-106930382D01*
X131926486Y-106011143D01*
X132103263Y-106187920D01*
X131184024Y-107107159D01*
X131184024Y-107107159D01*
G37*
D12*
G04 #@! TO.P,U1,46*
G04 #@! TO.N,SDAT*
X131201702Y-106205598D03*
D13*
G04 #@! TD*
G04 #@! TO.N,SDAT*
G04 #@! TO.C,U1*
G36*
X130830471Y-106753606D02*
X130653694Y-106576829D01*
X131572933Y-105657590D01*
X131749710Y-105834367D01*
X130830471Y-106753606D01*
X130830471Y-106753606D01*
G37*
D12*
G04 #@! TO.P,U1,47*
G04 #@! TO.N,MCLK*
X130848148Y-105852044D03*
D13*
G04 #@! TD*
G04 #@! TO.N,MCLK*
G04 #@! TO.C,U1*
G36*
X130476917Y-106400052D02*
X130300140Y-106223275D01*
X131219379Y-105304036D01*
X131396156Y-105480813D01*
X130476917Y-106400052D01*
X130476917Y-106400052D01*
G37*
D12*
G04 #@! TO.P,U1,48*
G04 #@! TO.N,VOL_DN*
X130494595Y-105498491D03*
D13*
G04 #@! TD*
G04 #@! TO.N,VOL_DN*
G04 #@! TO.C,U1*
G36*
X130123364Y-106046499D02*
X129946587Y-105869722D01*
X130865826Y-104950483D01*
X131042603Y-105127260D01*
X130123364Y-106046499D01*
X130123364Y-106046499D01*
G37*
D14*
G04 #@! TO.N,SPDIFO*
X119431849Y-82578949D02*
X117933224Y-82578949D01*
X128231853Y-91378953D02*
X119431849Y-82578949D01*
X128231853Y-105498491D02*
X128231853Y-91378953D01*
G04 #@! TO.N,D_IN*
X119480109Y-85118949D02*
X117933224Y-85118949D01*
X127112020Y-92750860D02*
X119480109Y-85118949D01*
X127112020Y-105029220D02*
X127112020Y-92750860D01*
X127878300Y-105795500D02*
X127112020Y-105029220D01*
X127878300Y-105852044D02*
X127878300Y-105795500D01*
G04 #@! TO.N,D_OUT*
X119449629Y-87658949D02*
X117933224Y-87658949D01*
X126499880Y-94709200D02*
X119449629Y-87658949D01*
X127524746Y-106196326D02*
X126499880Y-105171460D01*
X126499880Y-105171460D02*
X126499880Y-94709200D01*
X127524746Y-106205598D02*
X127524746Y-106196326D01*
G04 #@! TO.N,SK*
X117950215Y-90215940D02*
X117933224Y-90198949D01*
X119481860Y-90215940D02*
X117950215Y-90215940D01*
X125981720Y-96715800D02*
X119481860Y-90215940D01*
X125981720Y-105405140D02*
X125981720Y-96715800D01*
X127135731Y-106559151D02*
X125981720Y-105405140D01*
X127171193Y-106559151D02*
X127135731Y-106559151D01*
G04 #@! TO.N,~CS*
X119439469Y-92738949D02*
X117933224Y-92738949D01*
X125369580Y-98669060D02*
X119439469Y-92738949D01*
X126817640Y-106904000D02*
X125369580Y-105455940D01*
X125369580Y-105455940D02*
X125369580Y-98669060D01*
X126817640Y-106912704D02*
X126817640Y-106904000D01*
G04 #@! TO.N,MUTE_REC*
X119530909Y-95278949D02*
X117933224Y-95278949D01*
X124851420Y-100599460D02*
X119530909Y-95278949D01*
X124851420Y-105641360D02*
X124851420Y-100599460D01*
X126464086Y-107254026D02*
X124851420Y-105641360D01*
X126464086Y-107266258D02*
X126464086Y-107254026D01*
G04 #@! TO.N,PWRSEL*
X119523289Y-97818949D02*
X117933224Y-97818949D01*
X124333260Y-102628920D02*
X119523289Y-97818949D01*
X124333260Y-105786140D02*
X124333260Y-102628920D01*
X126110533Y-107563413D02*
X124333260Y-105786140D01*
X126110533Y-107619811D02*
X126110533Y-107563413D01*
G04 #@! TO.N,DREG18*
X118154229Y-100358949D02*
X117933224Y-100358949D01*
X125756979Y-107961699D02*
X118154229Y-100358949D01*
X125756979Y-107973365D02*
X125756979Y-107961699D01*
G04 #@! TO.N,DREG33*
X119990649Y-102898949D02*
X117933224Y-102898949D01*
X125403426Y-108311726D02*
X119990649Y-102898949D01*
X125403426Y-108326918D02*
X125403426Y-108311726D01*
G04 #@! TO.N,MODE*
X121829609Y-105438949D02*
X117933224Y-105438949D01*
X122778780Y-106388120D02*
X121829609Y-105438949D01*
X125049873Y-108661753D02*
X122778780Y-106390660D01*
X122778780Y-106390660D02*
X122778780Y-106388120D01*
X125049873Y-108680471D02*
X125049873Y-108661753D01*
G04 #@! TO.N,GPIO2*
X124696319Y-109034025D02*
X124683005Y-109034025D01*
X123627929Y-107978949D02*
X117933224Y-107978949D01*
X124683005Y-109034025D02*
X123627929Y-107978949D01*
G04 #@! TO.N,LED_O*
X119803453Y-108648720D02*
X117933224Y-110518949D01*
X123603908Y-108648720D02*
X119803453Y-108648720D01*
X124342766Y-109387578D02*
X123603908Y-108648720D01*
G04 #@! TO.N,GPIO3*
X117934013Y-113058160D02*
X117933224Y-113058949D01*
X122994680Y-113058160D02*
X117934013Y-113058160D01*
X124342766Y-111710074D02*
X122994680Y-113058160D01*
X124342766Y-111650320D02*
X124342766Y-111710074D01*
G04 #@! TO.N,DVSS_1*
X121126991Y-115598949D02*
X117933224Y-115598949D01*
X123164860Y-113561080D02*
X121126991Y-115598949D01*
X123164860Y-113530600D02*
X123164860Y-113561080D01*
X124691587Y-112003873D02*
X123164860Y-113530600D01*
X124696319Y-112003873D02*
X124691587Y-112003873D01*
G04 #@! TO.N,GPIO4*
X125049873Y-112357427D02*
X125049873Y-112361867D01*
X119272791Y-118138949D02*
X117933224Y-118138949D01*
X125049873Y-112361867D02*
X119272791Y-118138949D01*
G04 #@! TO.N,GPIO5*
X119371851Y-120678949D02*
X117933224Y-120678949D01*
X123098820Y-116951980D02*
X119371851Y-120678949D01*
X123098820Y-114978400D02*
X123098820Y-116951980D01*
X125366240Y-112710980D02*
X123098820Y-114978400D01*
X125403426Y-112710980D02*
X125366240Y-112710980D01*
G04 #@! TO.N,GPIO6*
X119536951Y-123218949D02*
X117933224Y-123218949D01*
X123591580Y-119164320D02*
X119536951Y-123218949D01*
X123591580Y-115229860D02*
X123591580Y-119164320D01*
X125756907Y-113064533D02*
X123591580Y-115229860D01*
X125756979Y-113064533D02*
X125756907Y-113064533D01*
G04 #@! TO.N,MUTE_PLAY*
X119491231Y-125758949D02*
X117933224Y-125758949D01*
X124132600Y-121117580D02*
X119491231Y-125758949D01*
X124132600Y-115379720D02*
X124132600Y-121117580D01*
X126094233Y-113418087D02*
X124132600Y-115379720D01*
X126110533Y-113418087D02*
X126094233Y-113418087D01*
G04 #@! TO.N,BUZZ*
X124795540Y-122954000D02*
X119450591Y-128298949D01*
X124795540Y-115387340D02*
X124795540Y-122954000D01*
X126411240Y-113771640D02*
X124795540Y-115387340D01*
X119450591Y-128298949D02*
X117933224Y-128298949D01*
X126464086Y-113771640D02*
X126411240Y-113771640D01*
G04 #@! TO.N,GPIO7*
X119448051Y-130838949D02*
X117933224Y-130838949D01*
X125295920Y-115595620D02*
X125295920Y-124991080D01*
X125295920Y-124991080D02*
X119448051Y-130838949D01*
X126766346Y-114125194D02*
X125295920Y-115595620D01*
X126817640Y-114125194D02*
X126766346Y-114125194D01*
G04 #@! TO.N,LED_R*
X125836940Y-115798820D02*
X125836940Y-127028160D01*
X127157013Y-114478747D02*
X125836940Y-115798820D01*
X119486151Y-133378949D02*
X117933224Y-133378949D01*
X125836940Y-127028160D02*
X119486151Y-133378949D01*
X127171193Y-114478747D02*
X127157013Y-114478747D01*
G04 #@! TO.N,GPIO8*
X119445511Y-135918949D02*
X117933224Y-135918949D01*
X126446611Y-128917849D02*
X119445511Y-135918949D01*
X126446611Y-115862249D02*
X126446611Y-128917849D01*
X127476560Y-114832300D02*
X126446611Y-115862249D01*
X127524746Y-114832300D02*
X127476560Y-114832300D01*
G04 #@! TO.N,TEST*
X119442971Y-138458949D02*
X117933224Y-138458949D01*
X127040900Y-130861020D02*
X119442971Y-138458949D01*
X127040900Y-115976620D02*
X127040900Y-130861020D01*
X127831666Y-115185854D02*
X127040900Y-115976620D01*
X127878300Y-115185854D02*
X127831666Y-115185854D01*
G04 #@! TO.N,AVSS_1*
X119440431Y-140998949D02*
X117933224Y-140998949D01*
X128231853Y-132207527D02*
X119440431Y-140998949D01*
X128231853Y-115539407D02*
X128231853Y-132207527D01*
G04 #@! TO.N,VBIAS*
X139236229Y-140998949D02*
X140793224Y-140998949D01*
X130494595Y-132257315D02*
X139236229Y-140998949D01*
X130494595Y-115539407D02*
X130494595Y-132257315D01*
G04 #@! TO.N,VREF*
X139187969Y-138458949D02*
X140793224Y-138458949D01*
X131633220Y-130904200D02*
X139187969Y-138458949D01*
X131633220Y-115981700D02*
X131633220Y-130904200D01*
X130848148Y-115196628D02*
X131633220Y-115981700D01*
X130848148Y-115185854D02*
X130848148Y-115196628D01*
G04 #@! TO.N,MIC_IN*
X132250440Y-128991580D02*
X139177809Y-135918949D01*
X132250440Y-115847080D02*
X132250440Y-128991580D01*
X139177809Y-135918949D02*
X140793224Y-135918949D01*
X131235660Y-114832300D02*
X132250440Y-115847080D01*
X131201702Y-114832300D02*
X131235660Y-114832300D01*
G04 #@! TO.N,AVDD_2*
X139320049Y-130838949D02*
X140793224Y-130838949D01*
X133065780Y-124584680D02*
X139320049Y-130838949D01*
X133065780Y-115283200D02*
X133065780Y-124584680D01*
X131908808Y-114126228D02*
X133065780Y-115283200D01*
X131908808Y-114125194D02*
X131908808Y-114126228D01*
G04 #@! TO.N,LO_LEFT*
X139261629Y-128298949D02*
X140793224Y-128298949D01*
X133596062Y-122633382D02*
X139261629Y-128298949D01*
X133596062Y-115081962D02*
X133596062Y-122633382D01*
X132285740Y-113771640D02*
X133596062Y-115081962D01*
X132262362Y-113771640D02*
X132285740Y-113771640D01*
G04 #@! TO.N,LO_BIAS*
X134198620Y-115011420D02*
X134198620Y-120751820D01*
X139205749Y-125758949D02*
X140793224Y-125758949D01*
X134198620Y-120751820D02*
X139205749Y-125758949D01*
X132615915Y-113428715D02*
X134198620Y-115011420D01*
X132615915Y-113418087D02*
X132615915Y-113428715D01*
G04 #@! TO.N,LO_RIGHT*
X139274329Y-123218949D02*
X140793224Y-123218949D01*
X132969469Y-113099009D02*
X134749800Y-114879340D01*
X134749800Y-118694420D02*
X139274329Y-123218949D01*
X134749800Y-114879340D02*
X134749800Y-118694420D01*
X132969469Y-113064533D02*
X132969469Y-113099009D01*
G04 #@! TO.N,AVSS_2*
X139152409Y-120678949D02*
X140793224Y-120678949D01*
X135303520Y-116830060D02*
X139152409Y-120678949D01*
X135303520Y-114688840D02*
X135303520Y-116830060D01*
X133325660Y-112710980D02*
X135303520Y-114688840D01*
X133323022Y-112710980D02*
X133325660Y-112710980D01*
G04 #@! TO.N,AVDD_1*
X133676575Y-112357427D02*
X133676575Y-112378635D01*
X139436889Y-118138949D02*
X140793224Y-118138949D01*
X133676575Y-112378635D02*
X139436889Y-118138949D01*
G04 #@! TO.N,DVDD*
X134030129Y-112003873D02*
X134048573Y-112003873D01*
X137643649Y-115598949D02*
X140793224Y-115598949D01*
X134048573Y-112003873D02*
X137643649Y-115598949D01*
G04 #@! TO.N,DVSS_2*
X134383682Y-111650320D02*
X134441780Y-111650320D01*
X135850409Y-113058949D02*
X140793224Y-113058949D01*
X134441780Y-111650320D02*
X135850409Y-113058949D01*
G04 #@! TO.N,AREG36*
X138922995Y-108648720D02*
X140793224Y-110518949D01*
X135122540Y-108648720D02*
X138922995Y-108648720D01*
X134383682Y-109387578D02*
X135122540Y-108648720D01*
G04 #@! TO.N,MSEL*
X134030129Y-109034025D02*
X134041915Y-109034025D01*
X135096991Y-107978949D02*
X140793224Y-107978949D01*
X134041915Y-109034025D02*
X135096991Y-107978949D01*
G04 #@! TO.N,VOL_UP*
X136910551Y-105438949D02*
X140793224Y-105438949D01*
X133676575Y-108672925D02*
X136910551Y-105438949D01*
X133676575Y-108680471D02*
X133676575Y-108672925D01*
G04 #@! TO.N,PDSW*
X138800311Y-102898949D02*
X140793224Y-102898949D01*
X133372342Y-108326918D02*
X138800311Y-102898949D01*
X133323022Y-108326918D02*
X133372342Y-108326918D01*
G04 #@! TO.N,USB_D+*
X140649431Y-100358949D02*
X140793224Y-100358949D01*
X133035015Y-107973365D02*
X140649431Y-100358949D01*
X132969469Y-107973365D02*
X133035015Y-107973365D01*
G04 #@! TO.N,USB_D-*
X139209251Y-97818949D02*
X140793224Y-97818949D01*
X134574540Y-102453660D02*
X139209251Y-97818949D01*
X134574540Y-105631200D02*
X134574540Y-102453660D01*
X132615915Y-107589825D02*
X134574540Y-105631200D01*
X132615915Y-107619811D02*
X132615915Y-107589825D01*
G04 #@! TO.N,GPIO1*
X139224491Y-95278949D02*
X140793224Y-95278949D01*
X134038600Y-100464840D02*
X139224491Y-95278949D01*
X134038600Y-105476260D02*
X134038600Y-100464840D01*
X132262362Y-107252498D02*
X134038600Y-105476260D01*
X132262362Y-107266258D02*
X132262362Y-107252498D01*
G04 #@! TO.N,SCLK*
X139158451Y-92738949D02*
X140793224Y-92738949D01*
X133464560Y-98432840D02*
X139158451Y-92738949D01*
X133464560Y-105394980D02*
X133464560Y-98432840D01*
X131946836Y-106912704D02*
X133464560Y-105394980D01*
X131908808Y-106912704D02*
X131946836Y-106912704D01*
G04 #@! TO.N,MINT*
X139135591Y-90198949D02*
X140793224Y-90198949D01*
X132908300Y-96426240D02*
X139135591Y-90198949D01*
X132908300Y-105163840D02*
X132908300Y-96426240D01*
X131555255Y-106516885D02*
X132908300Y-105163840D01*
X131555255Y-106559151D02*
X131555255Y-106516885D01*
G04 #@! TO.N,SDAT*
X132252980Y-105100340D02*
X132252980Y-94602520D01*
X131201702Y-106151618D02*
X132252980Y-105100340D01*
X139196551Y-87658949D02*
X140793224Y-87658949D01*
X132252980Y-94602520D02*
X139196551Y-87658949D01*
X131201702Y-106205598D02*
X131201702Y-106151618D01*
G04 #@! TO.N,MCLK*
X139234651Y-85118949D02*
X140793224Y-85118949D01*
X131384300Y-92969300D02*
X139234651Y-85118949D01*
X130848148Y-105824452D02*
X131384300Y-105288300D01*
X131384300Y-105288300D02*
X131384300Y-92969300D01*
X130848148Y-105852044D02*
X130848148Y-105824452D01*
G04 #@! TO.N,VOL_DN*
X139237191Y-82578949D02*
X140793224Y-82578949D01*
X130494595Y-91321545D02*
X139237191Y-82578949D01*
X130494595Y-105498491D02*
X130494595Y-91321545D01*
G04 #@! TD*
M02*
