G04 #@! TF.GenerationSoftware,KiCad,Pcbnew,(5.0.0-3-g5ebb6b6)*
G04 #@! TF.CreationDate,2018-07-29T14:18:39+10:00*
G04 #@! TF.ProjectId,ETE006-CM119B-Breatout,4554453030362D434D313139422D4272,1*
G04 #@! TF.SameCoordinates,Original*
G04 #@! TF.FileFunction,Soldermask,Bot*
G04 #@! TF.FilePolarity,Negative*
%FSLAX46Y46*%
G04 Gerber Fmt 4.6, Leading zero omitted, Abs format (unit mm)*
G04 Created by KiCad (PCBNEW (5.0.0-3-g5ebb6b6)) date Sunday, 29 July 2018 at 02:18:39 PM*
%MOMM*%
%LPD*%
G01*
G04 APERTURE LIST*
%ADD10R,2.100000X2.100000*%
%ADD11O,2.100000X2.100000*%
G04 APERTURE END LIST*
D10*
G04 #@! TO.C,J1*
X117933224Y-82578949D03*
D11*
X117933224Y-85118949D03*
X117933224Y-87658949D03*
X117933224Y-90198949D03*
X117933224Y-92738949D03*
X117933224Y-95278949D03*
X117933224Y-97818949D03*
X117933224Y-100358949D03*
X117933224Y-102898949D03*
X117933224Y-105438949D03*
X117933224Y-107978949D03*
X117933224Y-110518949D03*
X117933224Y-113058949D03*
X117933224Y-115598949D03*
X117933224Y-118138949D03*
X117933224Y-120678949D03*
X117933224Y-123218949D03*
X117933224Y-125758949D03*
X117933224Y-128298949D03*
X117933224Y-130838949D03*
X117933224Y-133378949D03*
X117933224Y-135918949D03*
X117933224Y-138458949D03*
X117933224Y-140998949D03*
G04 #@! TD*
G04 #@! TO.C,J2*
X140793224Y-140998949D03*
X140793224Y-138458949D03*
X140793224Y-135918949D03*
X140793224Y-133378949D03*
X140793224Y-130838949D03*
X140793224Y-128298949D03*
X140793224Y-125758949D03*
X140793224Y-123218949D03*
X140793224Y-120678949D03*
X140793224Y-118138949D03*
X140793224Y-115598949D03*
X140793224Y-113058949D03*
X140793224Y-110518949D03*
X140793224Y-107978949D03*
X140793224Y-105438949D03*
X140793224Y-102898949D03*
X140793224Y-100358949D03*
X140793224Y-97818949D03*
X140793224Y-95278949D03*
X140793224Y-92738949D03*
X140793224Y-90198949D03*
X140793224Y-87658949D03*
X140793224Y-85118949D03*
D10*
X140793224Y-82578949D03*
G04 #@! TD*
M02*
