G04 #@! TF.GenerationSoftware,KiCad,Pcbnew,(5.0.0-3-g5ebb6b6)*
G04 #@! TF.CreationDate,2018-07-29T14:18:39+10:00*
G04 #@! TF.ProjectId,ETE006-CM119B-Breatout,4554453030362D434D313139422D4272,1*
G04 #@! TF.SameCoordinates,Original*
G04 #@! TF.FileFunction,Copper,L2,Bot,Signal*
G04 #@! TF.FilePolarity,Positive*
%FSLAX46Y46*%
G04 Gerber Fmt 4.6, Leading zero omitted, Abs format (unit mm)*
G04 Created by KiCad (PCBNEW (5.0.0-3-g5ebb6b6)) date Sunday, 29 July 2018 at 02:18:39 PM*
%MOMM*%
%LPD*%
G01*
G04 APERTURE LIST*
G04 #@! TA.AperFunction,ComponentPad*
%ADD10R,1.700000X1.700000*%
G04 #@! TD*
G04 #@! TA.AperFunction,ComponentPad*
%ADD11O,1.700000X1.700000*%
G04 #@! TD*
G04 #@! TA.AperFunction,NonConductor*
%ADD12C,0.254000*%
G04 #@! TD*
G04 APERTURE END LIST*
D10*
G04 #@! TO.P,J1,1*
G04 #@! TO.N,SPDIFO*
X117933224Y-82578949D03*
D11*
G04 #@! TO.P,J1,2*
G04 #@! TO.N,D_IN*
X117933224Y-85118949D03*
G04 #@! TO.P,J1,3*
G04 #@! TO.N,D_OUT*
X117933224Y-87658949D03*
G04 #@! TO.P,J1,4*
G04 #@! TO.N,SK*
X117933224Y-90198949D03*
G04 #@! TO.P,J1,5*
G04 #@! TO.N,~CS*
X117933224Y-92738949D03*
G04 #@! TO.P,J1,6*
G04 #@! TO.N,MUTE_REC*
X117933224Y-95278949D03*
G04 #@! TO.P,J1,7*
G04 #@! TO.N,PWRSEL*
X117933224Y-97818949D03*
G04 #@! TO.P,J1,8*
G04 #@! TO.N,DREG18*
X117933224Y-100358949D03*
G04 #@! TO.P,J1,9*
G04 #@! TO.N,DREG33*
X117933224Y-102898949D03*
G04 #@! TO.P,J1,10*
G04 #@! TO.N,MODE*
X117933224Y-105438949D03*
G04 #@! TO.P,J1,11*
G04 #@! TO.N,GPIO2*
X117933224Y-107978949D03*
G04 #@! TO.P,J1,12*
G04 #@! TO.N,LED_O*
X117933224Y-110518949D03*
G04 #@! TO.P,J1,13*
G04 #@! TO.N,GPIO3*
X117933224Y-113058949D03*
G04 #@! TO.P,J1,14*
G04 #@! TO.N,DVSS_1*
X117933224Y-115598949D03*
G04 #@! TO.P,J1,15*
G04 #@! TO.N,GPIO4*
X117933224Y-118138949D03*
G04 #@! TO.P,J1,16*
G04 #@! TO.N,GPIO5*
X117933224Y-120678949D03*
G04 #@! TO.P,J1,17*
G04 #@! TO.N,GPIO6*
X117933224Y-123218949D03*
G04 #@! TO.P,J1,18*
G04 #@! TO.N,MUTE_PLAY*
X117933224Y-125758949D03*
G04 #@! TO.P,J1,19*
G04 #@! TO.N,BUZZ*
X117933224Y-128298949D03*
G04 #@! TO.P,J1,20*
G04 #@! TO.N,GPIO7*
X117933224Y-130838949D03*
G04 #@! TO.P,J1,21*
G04 #@! TO.N,LED_R*
X117933224Y-133378949D03*
G04 #@! TO.P,J1,22*
G04 #@! TO.N,GPIO8*
X117933224Y-135918949D03*
G04 #@! TO.P,J1,23*
G04 #@! TO.N,TEST*
X117933224Y-138458949D03*
G04 #@! TO.P,J1,24*
G04 #@! TO.N,AVSS_1*
X117933224Y-140998949D03*
G04 #@! TD*
G04 #@! TO.P,J2,24*
G04 #@! TO.N,VBIAS*
X140793224Y-140998949D03*
G04 #@! TO.P,J2,23*
G04 #@! TO.N,VREF*
X140793224Y-138458949D03*
G04 #@! TO.P,J2,22*
G04 #@! TO.N,MIC_IN*
X140793224Y-135918949D03*
G04 #@! TO.P,J2,21*
G04 #@! TO.N,Net-(J2-Pad21)*
X140793224Y-133378949D03*
G04 #@! TO.P,J2,20*
G04 #@! TO.N,AVDD_2*
X140793224Y-130838949D03*
G04 #@! TO.P,J2,19*
G04 #@! TO.N,LO_LEFT*
X140793224Y-128298949D03*
G04 #@! TO.P,J2,18*
G04 #@! TO.N,LO_BIAS*
X140793224Y-125758949D03*
G04 #@! TO.P,J2,17*
G04 #@! TO.N,LO_RIGHT*
X140793224Y-123218949D03*
G04 #@! TO.P,J2,16*
G04 #@! TO.N,AVSS_2*
X140793224Y-120678949D03*
G04 #@! TO.P,J2,15*
G04 #@! TO.N,AVDD_1*
X140793224Y-118138949D03*
G04 #@! TO.P,J2,14*
G04 #@! TO.N,DVDD*
X140793224Y-115598949D03*
G04 #@! TO.P,J2,13*
G04 #@! TO.N,DVSS_2*
X140793224Y-113058949D03*
G04 #@! TO.P,J2,12*
G04 #@! TO.N,AREG36*
X140793224Y-110518949D03*
G04 #@! TO.P,J2,11*
G04 #@! TO.N,MSEL*
X140793224Y-107978949D03*
G04 #@! TO.P,J2,10*
G04 #@! TO.N,VOL_UP*
X140793224Y-105438949D03*
G04 #@! TO.P,J2,9*
G04 #@! TO.N,PDSW*
X140793224Y-102898949D03*
G04 #@! TO.P,J2,8*
G04 #@! TO.N,USB_D+*
X140793224Y-100358949D03*
G04 #@! TO.P,J2,7*
G04 #@! TO.N,USB_D-*
X140793224Y-97818949D03*
G04 #@! TO.P,J2,6*
G04 #@! TO.N,GPIO1*
X140793224Y-95278949D03*
G04 #@! TO.P,J2,5*
G04 #@! TO.N,SCLK*
X140793224Y-92738949D03*
G04 #@! TO.P,J2,4*
G04 #@! TO.N,MINT*
X140793224Y-90198949D03*
G04 #@! TO.P,J2,3*
G04 #@! TO.N,SDAT*
X140793224Y-87658949D03*
G04 #@! TO.P,J2,2*
G04 #@! TO.N,MCLK*
X140793224Y-85118949D03*
D10*
G04 #@! TO.P,J2,1*
G04 #@! TO.N,VOL_DN*
X140793224Y-82578949D03*
G04 #@! TD*
D12*
G36*
X116862599Y-142069574D02*
X117222422Y-142310000D01*
X116740000Y-142310000D01*
X116740000Y-141886092D01*
X116862599Y-142069574D01*
X116862599Y-142069574D01*
G37*
X116862599Y-142069574D02*
X117222422Y-142310000D01*
X116740000Y-142310000D01*
X116740000Y-141886092D01*
X116862599Y-142069574D01*
G36*
X141990000Y-81196950D02*
X141890989Y-81130792D01*
X141643224Y-81081509D01*
X139943224Y-81081509D01*
X139695459Y-81130792D01*
X139485415Y-81271140D01*
X139345067Y-81481184D01*
X139295784Y-81728949D01*
X139295784Y-83428949D01*
X139345067Y-83676714D01*
X139485415Y-83886758D01*
X139695459Y-84027106D01*
X139740843Y-84036133D01*
X139722599Y-84048324D01*
X139394385Y-84539531D01*
X139279132Y-85118949D01*
X139394385Y-85698367D01*
X139722599Y-86189574D01*
X140020985Y-86388949D01*
X139722599Y-86588324D01*
X139394385Y-87079531D01*
X139279132Y-87658949D01*
X139394385Y-88238367D01*
X139722599Y-88729574D01*
X140020985Y-88928949D01*
X139722599Y-89128324D01*
X139394385Y-89619531D01*
X139279132Y-90198949D01*
X139394385Y-90778367D01*
X139722599Y-91269574D01*
X140020985Y-91468949D01*
X139722599Y-91668324D01*
X139394385Y-92159531D01*
X139279132Y-92738949D01*
X139394385Y-93318367D01*
X139722599Y-93809574D01*
X140020985Y-94008949D01*
X139722599Y-94208324D01*
X139394385Y-94699531D01*
X139279132Y-95278949D01*
X139394385Y-95858367D01*
X139722599Y-96349574D01*
X140020985Y-96548949D01*
X139722599Y-96748324D01*
X139394385Y-97239531D01*
X139279132Y-97818949D01*
X139394385Y-98398367D01*
X139722599Y-98889574D01*
X140020985Y-99088949D01*
X139722599Y-99288324D01*
X139394385Y-99779531D01*
X139279132Y-100358949D01*
X139394385Y-100938367D01*
X139722599Y-101429574D01*
X140020985Y-101628949D01*
X139722599Y-101828324D01*
X139394385Y-102319531D01*
X139279132Y-102898949D01*
X139394385Y-103478367D01*
X139722599Y-103969574D01*
X140020985Y-104168949D01*
X139722599Y-104368324D01*
X139394385Y-104859531D01*
X139279132Y-105438949D01*
X139394385Y-106018367D01*
X139722599Y-106509574D01*
X140020985Y-106708949D01*
X139722599Y-106908324D01*
X139394385Y-107399531D01*
X139279132Y-107978949D01*
X139394385Y-108558367D01*
X139722599Y-109049574D01*
X140020985Y-109248949D01*
X139722599Y-109448324D01*
X139394385Y-109939531D01*
X139279132Y-110518949D01*
X139394385Y-111098367D01*
X139722599Y-111589574D01*
X140020985Y-111788949D01*
X139722599Y-111988324D01*
X139394385Y-112479531D01*
X139279132Y-113058949D01*
X139394385Y-113638367D01*
X139722599Y-114129574D01*
X140020985Y-114328949D01*
X139722599Y-114528324D01*
X139394385Y-115019531D01*
X139279132Y-115598949D01*
X139394385Y-116178367D01*
X139722599Y-116669574D01*
X140020985Y-116868949D01*
X139722599Y-117068324D01*
X139394385Y-117559531D01*
X139279132Y-118138949D01*
X139394385Y-118718367D01*
X139722599Y-119209574D01*
X140020985Y-119408949D01*
X139722599Y-119608324D01*
X139394385Y-120099531D01*
X139279132Y-120678949D01*
X139394385Y-121258367D01*
X139722599Y-121749574D01*
X140020985Y-121948949D01*
X139722599Y-122148324D01*
X139394385Y-122639531D01*
X139279132Y-123218949D01*
X139394385Y-123798367D01*
X139722599Y-124289574D01*
X140020985Y-124488949D01*
X139722599Y-124688324D01*
X139394385Y-125179531D01*
X139279132Y-125758949D01*
X139394385Y-126338367D01*
X139722599Y-126829574D01*
X140020985Y-127028949D01*
X139722599Y-127228324D01*
X139394385Y-127719531D01*
X139279132Y-128298949D01*
X139394385Y-128878367D01*
X139722599Y-129369574D01*
X140020985Y-129568949D01*
X139722599Y-129768324D01*
X139394385Y-130259531D01*
X139279132Y-130838949D01*
X139394385Y-131418367D01*
X139722599Y-131909574D01*
X140020985Y-132108949D01*
X139722599Y-132308324D01*
X139394385Y-132799531D01*
X139279132Y-133378949D01*
X139394385Y-133958367D01*
X139722599Y-134449574D01*
X140020985Y-134648949D01*
X139722599Y-134848324D01*
X139394385Y-135339531D01*
X139279132Y-135918949D01*
X139394385Y-136498367D01*
X139722599Y-136989574D01*
X140020985Y-137188949D01*
X139722599Y-137388324D01*
X139394385Y-137879531D01*
X139279132Y-138458949D01*
X139394385Y-139038367D01*
X139722599Y-139529574D01*
X140020985Y-139728949D01*
X139722599Y-139928324D01*
X139394385Y-140419531D01*
X139279132Y-140998949D01*
X139394385Y-141578367D01*
X139722599Y-142069574D01*
X140082422Y-142310000D01*
X118644026Y-142310000D01*
X119003849Y-142069574D01*
X119332063Y-141578367D01*
X119447316Y-140998949D01*
X119332063Y-140419531D01*
X119003849Y-139928324D01*
X118705463Y-139728949D01*
X119003849Y-139529574D01*
X119332063Y-139038367D01*
X119447316Y-138458949D01*
X119332063Y-137879531D01*
X119003849Y-137388324D01*
X118705463Y-137188949D01*
X119003849Y-136989574D01*
X119332063Y-136498367D01*
X119447316Y-135918949D01*
X119332063Y-135339531D01*
X119003849Y-134848324D01*
X118705463Y-134648949D01*
X119003849Y-134449574D01*
X119332063Y-133958367D01*
X119447316Y-133378949D01*
X119332063Y-132799531D01*
X119003849Y-132308324D01*
X118705463Y-132108949D01*
X119003849Y-131909574D01*
X119332063Y-131418367D01*
X119447316Y-130838949D01*
X119332063Y-130259531D01*
X119003849Y-129768324D01*
X118705463Y-129568949D01*
X119003849Y-129369574D01*
X119332063Y-128878367D01*
X119447316Y-128298949D01*
X119332063Y-127719531D01*
X119003849Y-127228324D01*
X118705463Y-127028949D01*
X119003849Y-126829574D01*
X119332063Y-126338367D01*
X119447316Y-125758949D01*
X119332063Y-125179531D01*
X119003849Y-124688324D01*
X118705463Y-124488949D01*
X119003849Y-124289574D01*
X119332063Y-123798367D01*
X119447316Y-123218949D01*
X119332063Y-122639531D01*
X119003849Y-122148324D01*
X118705463Y-121948949D01*
X119003849Y-121749574D01*
X119332063Y-121258367D01*
X119447316Y-120678949D01*
X119332063Y-120099531D01*
X119003849Y-119608324D01*
X118705463Y-119408949D01*
X119003849Y-119209574D01*
X119332063Y-118718367D01*
X119447316Y-118138949D01*
X119332063Y-117559531D01*
X119003849Y-117068324D01*
X118705463Y-116868949D01*
X119003849Y-116669574D01*
X119332063Y-116178367D01*
X119447316Y-115598949D01*
X119332063Y-115019531D01*
X119003849Y-114528324D01*
X118705463Y-114328949D01*
X119003849Y-114129574D01*
X119332063Y-113638367D01*
X119447316Y-113058949D01*
X119332063Y-112479531D01*
X119003849Y-111988324D01*
X118705463Y-111788949D01*
X119003849Y-111589574D01*
X119332063Y-111098367D01*
X119447316Y-110518949D01*
X119332063Y-109939531D01*
X119003849Y-109448324D01*
X118705463Y-109248949D01*
X119003849Y-109049574D01*
X119332063Y-108558367D01*
X119447316Y-107978949D01*
X119332063Y-107399531D01*
X119003849Y-106908324D01*
X118705463Y-106708949D01*
X119003849Y-106509574D01*
X119332063Y-106018367D01*
X119447316Y-105438949D01*
X119332063Y-104859531D01*
X119003849Y-104368324D01*
X118705463Y-104168949D01*
X119003849Y-103969574D01*
X119332063Y-103478367D01*
X119447316Y-102898949D01*
X119332063Y-102319531D01*
X119003849Y-101828324D01*
X118705463Y-101628949D01*
X119003849Y-101429574D01*
X119332063Y-100938367D01*
X119447316Y-100358949D01*
X119332063Y-99779531D01*
X119003849Y-99288324D01*
X118705463Y-99088949D01*
X119003849Y-98889574D01*
X119332063Y-98398367D01*
X119447316Y-97818949D01*
X119332063Y-97239531D01*
X119003849Y-96748324D01*
X118705463Y-96548949D01*
X119003849Y-96349574D01*
X119332063Y-95858367D01*
X119447316Y-95278949D01*
X119332063Y-94699531D01*
X119003849Y-94208324D01*
X118705463Y-94008949D01*
X119003849Y-93809574D01*
X119332063Y-93318367D01*
X119447316Y-92738949D01*
X119332063Y-92159531D01*
X119003849Y-91668324D01*
X118705463Y-91468949D01*
X119003849Y-91269574D01*
X119332063Y-90778367D01*
X119447316Y-90198949D01*
X119332063Y-89619531D01*
X119003849Y-89128324D01*
X118705463Y-88928949D01*
X119003849Y-88729574D01*
X119332063Y-88238367D01*
X119447316Y-87658949D01*
X119332063Y-87079531D01*
X119003849Y-86588324D01*
X118705463Y-86388949D01*
X119003849Y-86189574D01*
X119332063Y-85698367D01*
X119447316Y-85118949D01*
X119332063Y-84539531D01*
X119003849Y-84048324D01*
X118985605Y-84036133D01*
X119030989Y-84027106D01*
X119241033Y-83886758D01*
X119381381Y-83676714D01*
X119430664Y-83428949D01*
X119430664Y-81728949D01*
X119381381Y-81481184D01*
X119241033Y-81271140D01*
X119030989Y-81130792D01*
X118783224Y-81081509D01*
X117083224Y-81081509D01*
X116835459Y-81130792D01*
X116740000Y-81194576D01*
X116740000Y-80230000D01*
X141990000Y-80230000D01*
X141990000Y-81196950D01*
X141990000Y-81196950D01*
G37*
X141990000Y-81196950D02*
X141890989Y-81130792D01*
X141643224Y-81081509D01*
X139943224Y-81081509D01*
X139695459Y-81130792D01*
X139485415Y-81271140D01*
X139345067Y-81481184D01*
X139295784Y-81728949D01*
X139295784Y-83428949D01*
X139345067Y-83676714D01*
X139485415Y-83886758D01*
X139695459Y-84027106D01*
X139740843Y-84036133D01*
X139722599Y-84048324D01*
X139394385Y-84539531D01*
X139279132Y-85118949D01*
X139394385Y-85698367D01*
X139722599Y-86189574D01*
X140020985Y-86388949D01*
X139722599Y-86588324D01*
X139394385Y-87079531D01*
X139279132Y-87658949D01*
X139394385Y-88238367D01*
X139722599Y-88729574D01*
X140020985Y-88928949D01*
X139722599Y-89128324D01*
X139394385Y-89619531D01*
X139279132Y-90198949D01*
X139394385Y-90778367D01*
X139722599Y-91269574D01*
X140020985Y-91468949D01*
X139722599Y-91668324D01*
X139394385Y-92159531D01*
X139279132Y-92738949D01*
X139394385Y-93318367D01*
X139722599Y-93809574D01*
X140020985Y-94008949D01*
X139722599Y-94208324D01*
X139394385Y-94699531D01*
X139279132Y-95278949D01*
X139394385Y-95858367D01*
X139722599Y-96349574D01*
X140020985Y-96548949D01*
X139722599Y-96748324D01*
X139394385Y-97239531D01*
X139279132Y-97818949D01*
X139394385Y-98398367D01*
X139722599Y-98889574D01*
X140020985Y-99088949D01*
X139722599Y-99288324D01*
X139394385Y-99779531D01*
X139279132Y-100358949D01*
X139394385Y-100938367D01*
X139722599Y-101429574D01*
X140020985Y-101628949D01*
X139722599Y-101828324D01*
X139394385Y-102319531D01*
X139279132Y-102898949D01*
X139394385Y-103478367D01*
X139722599Y-103969574D01*
X140020985Y-104168949D01*
X139722599Y-104368324D01*
X139394385Y-104859531D01*
X139279132Y-105438949D01*
X139394385Y-106018367D01*
X139722599Y-106509574D01*
X140020985Y-106708949D01*
X139722599Y-106908324D01*
X139394385Y-107399531D01*
X139279132Y-107978949D01*
X139394385Y-108558367D01*
X139722599Y-109049574D01*
X140020985Y-109248949D01*
X139722599Y-109448324D01*
X139394385Y-109939531D01*
X139279132Y-110518949D01*
X139394385Y-111098367D01*
X139722599Y-111589574D01*
X140020985Y-111788949D01*
X139722599Y-111988324D01*
X139394385Y-112479531D01*
X139279132Y-113058949D01*
X139394385Y-113638367D01*
X139722599Y-114129574D01*
X140020985Y-114328949D01*
X139722599Y-114528324D01*
X139394385Y-115019531D01*
X139279132Y-115598949D01*
X139394385Y-116178367D01*
X139722599Y-116669574D01*
X140020985Y-116868949D01*
X139722599Y-117068324D01*
X139394385Y-117559531D01*
X139279132Y-118138949D01*
X139394385Y-118718367D01*
X139722599Y-119209574D01*
X140020985Y-119408949D01*
X139722599Y-119608324D01*
X139394385Y-120099531D01*
X139279132Y-120678949D01*
X139394385Y-121258367D01*
X139722599Y-121749574D01*
X140020985Y-121948949D01*
X139722599Y-122148324D01*
X139394385Y-122639531D01*
X139279132Y-123218949D01*
X139394385Y-123798367D01*
X139722599Y-124289574D01*
X140020985Y-124488949D01*
X139722599Y-124688324D01*
X139394385Y-125179531D01*
X139279132Y-125758949D01*
X139394385Y-126338367D01*
X139722599Y-126829574D01*
X140020985Y-127028949D01*
X139722599Y-127228324D01*
X139394385Y-127719531D01*
X139279132Y-128298949D01*
X139394385Y-128878367D01*
X139722599Y-129369574D01*
X140020985Y-129568949D01*
X139722599Y-129768324D01*
X139394385Y-130259531D01*
X139279132Y-130838949D01*
X139394385Y-131418367D01*
X139722599Y-131909574D01*
X140020985Y-132108949D01*
X139722599Y-132308324D01*
X139394385Y-132799531D01*
X139279132Y-133378949D01*
X139394385Y-133958367D01*
X139722599Y-134449574D01*
X140020985Y-134648949D01*
X139722599Y-134848324D01*
X139394385Y-135339531D01*
X139279132Y-135918949D01*
X139394385Y-136498367D01*
X139722599Y-136989574D01*
X140020985Y-137188949D01*
X139722599Y-137388324D01*
X139394385Y-137879531D01*
X139279132Y-138458949D01*
X139394385Y-139038367D01*
X139722599Y-139529574D01*
X140020985Y-139728949D01*
X139722599Y-139928324D01*
X139394385Y-140419531D01*
X139279132Y-140998949D01*
X139394385Y-141578367D01*
X139722599Y-142069574D01*
X140082422Y-142310000D01*
X118644026Y-142310000D01*
X119003849Y-142069574D01*
X119332063Y-141578367D01*
X119447316Y-140998949D01*
X119332063Y-140419531D01*
X119003849Y-139928324D01*
X118705463Y-139728949D01*
X119003849Y-139529574D01*
X119332063Y-139038367D01*
X119447316Y-138458949D01*
X119332063Y-137879531D01*
X119003849Y-137388324D01*
X118705463Y-137188949D01*
X119003849Y-136989574D01*
X119332063Y-136498367D01*
X119447316Y-135918949D01*
X119332063Y-135339531D01*
X119003849Y-134848324D01*
X118705463Y-134648949D01*
X119003849Y-134449574D01*
X119332063Y-133958367D01*
X119447316Y-133378949D01*
X119332063Y-132799531D01*
X119003849Y-132308324D01*
X118705463Y-132108949D01*
X119003849Y-131909574D01*
X119332063Y-131418367D01*
X119447316Y-130838949D01*
X119332063Y-130259531D01*
X119003849Y-129768324D01*
X118705463Y-129568949D01*
X119003849Y-129369574D01*
X119332063Y-128878367D01*
X119447316Y-128298949D01*
X119332063Y-127719531D01*
X119003849Y-127228324D01*
X118705463Y-127028949D01*
X119003849Y-126829574D01*
X119332063Y-126338367D01*
X119447316Y-125758949D01*
X119332063Y-125179531D01*
X119003849Y-124688324D01*
X118705463Y-124488949D01*
X119003849Y-124289574D01*
X119332063Y-123798367D01*
X119447316Y-123218949D01*
X119332063Y-122639531D01*
X119003849Y-122148324D01*
X118705463Y-121948949D01*
X119003849Y-121749574D01*
X119332063Y-121258367D01*
X119447316Y-120678949D01*
X119332063Y-120099531D01*
X119003849Y-119608324D01*
X118705463Y-119408949D01*
X119003849Y-119209574D01*
X119332063Y-118718367D01*
X119447316Y-118138949D01*
X119332063Y-117559531D01*
X119003849Y-117068324D01*
X118705463Y-116868949D01*
X119003849Y-116669574D01*
X119332063Y-116178367D01*
X119447316Y-115598949D01*
X119332063Y-115019531D01*
X119003849Y-114528324D01*
X118705463Y-114328949D01*
X119003849Y-114129574D01*
X119332063Y-113638367D01*
X119447316Y-113058949D01*
X119332063Y-112479531D01*
X119003849Y-111988324D01*
X118705463Y-111788949D01*
X119003849Y-111589574D01*
X119332063Y-111098367D01*
X119447316Y-110518949D01*
X119332063Y-109939531D01*
X119003849Y-109448324D01*
X118705463Y-109248949D01*
X119003849Y-109049574D01*
X119332063Y-108558367D01*
X119447316Y-107978949D01*
X119332063Y-107399531D01*
X119003849Y-106908324D01*
X118705463Y-106708949D01*
X119003849Y-106509574D01*
X119332063Y-106018367D01*
X119447316Y-105438949D01*
X119332063Y-104859531D01*
X119003849Y-104368324D01*
X118705463Y-104168949D01*
X119003849Y-103969574D01*
X119332063Y-103478367D01*
X119447316Y-102898949D01*
X119332063Y-102319531D01*
X119003849Y-101828324D01*
X118705463Y-101628949D01*
X119003849Y-101429574D01*
X119332063Y-100938367D01*
X119447316Y-100358949D01*
X119332063Y-99779531D01*
X119003849Y-99288324D01*
X118705463Y-99088949D01*
X119003849Y-98889574D01*
X119332063Y-98398367D01*
X119447316Y-97818949D01*
X119332063Y-97239531D01*
X119003849Y-96748324D01*
X118705463Y-96548949D01*
X119003849Y-96349574D01*
X119332063Y-95858367D01*
X119447316Y-95278949D01*
X119332063Y-94699531D01*
X119003849Y-94208324D01*
X118705463Y-94008949D01*
X119003849Y-93809574D01*
X119332063Y-93318367D01*
X119447316Y-92738949D01*
X119332063Y-92159531D01*
X119003849Y-91668324D01*
X118705463Y-91468949D01*
X119003849Y-91269574D01*
X119332063Y-90778367D01*
X119447316Y-90198949D01*
X119332063Y-89619531D01*
X119003849Y-89128324D01*
X118705463Y-88928949D01*
X119003849Y-88729574D01*
X119332063Y-88238367D01*
X119447316Y-87658949D01*
X119332063Y-87079531D01*
X119003849Y-86588324D01*
X118705463Y-86388949D01*
X119003849Y-86189574D01*
X119332063Y-85698367D01*
X119447316Y-85118949D01*
X119332063Y-84539531D01*
X119003849Y-84048324D01*
X118985605Y-84036133D01*
X119030989Y-84027106D01*
X119241033Y-83886758D01*
X119381381Y-83676714D01*
X119430664Y-83428949D01*
X119430664Y-81728949D01*
X119381381Y-81481184D01*
X119241033Y-81271140D01*
X119030989Y-81130792D01*
X118783224Y-81081509D01*
X117083224Y-81081509D01*
X116835459Y-81130792D01*
X116740000Y-81194576D01*
X116740000Y-80230000D01*
X141990000Y-80230000D01*
X141990000Y-81196950D01*
G36*
X141990001Y-142310000D02*
X141504026Y-142310000D01*
X141863849Y-142069574D01*
X141990001Y-141880774D01*
X141990001Y-142310000D01*
X141990001Y-142310000D01*
G37*
X141990001Y-142310000D02*
X141504026Y-142310000D01*
X141863849Y-142069574D01*
X141990001Y-141880774D01*
X141990001Y-142310000D01*
G36*
X141990001Y-140117124D02*
X141863849Y-139928324D01*
X141565463Y-139728949D01*
X141863849Y-139529574D01*
X141990001Y-139340774D01*
X141990001Y-140117124D01*
X141990001Y-140117124D01*
G37*
X141990001Y-140117124D02*
X141863849Y-139928324D01*
X141565463Y-139728949D01*
X141863849Y-139529574D01*
X141990001Y-139340774D01*
X141990001Y-140117124D01*
G36*
X116862599Y-139529574D02*
X117160985Y-139728949D01*
X116862599Y-139928324D01*
X116740000Y-140111806D01*
X116740000Y-139346092D01*
X116862599Y-139529574D01*
X116862599Y-139529574D01*
G37*
X116862599Y-139529574D02*
X117160985Y-139728949D01*
X116862599Y-139928324D01*
X116740000Y-140111806D01*
X116740000Y-139346092D01*
X116862599Y-139529574D01*
G36*
X141990001Y-137577124D02*
X141863849Y-137388324D01*
X141565463Y-137188949D01*
X141863849Y-136989574D01*
X141990001Y-136800774D01*
X141990001Y-137577124D01*
X141990001Y-137577124D01*
G37*
X141990001Y-137577124D02*
X141863849Y-137388324D01*
X141565463Y-137188949D01*
X141863849Y-136989574D01*
X141990001Y-136800774D01*
X141990001Y-137577124D01*
G36*
X116862599Y-136989574D02*
X117160985Y-137188949D01*
X116862599Y-137388324D01*
X116740000Y-137571806D01*
X116740000Y-136806092D01*
X116862599Y-136989574D01*
X116862599Y-136989574D01*
G37*
X116862599Y-136989574D02*
X117160985Y-137188949D01*
X116862599Y-137388324D01*
X116740000Y-137571806D01*
X116740000Y-136806092D01*
X116862599Y-136989574D01*
G36*
X141990001Y-135037124D02*
X141863849Y-134848324D01*
X141565463Y-134648949D01*
X141863849Y-134449574D01*
X141990001Y-134260774D01*
X141990001Y-135037124D01*
X141990001Y-135037124D01*
G37*
X141990001Y-135037124D02*
X141863849Y-134848324D01*
X141565463Y-134648949D01*
X141863849Y-134449574D01*
X141990001Y-134260774D01*
X141990001Y-135037124D01*
G36*
X116862599Y-134449574D02*
X117160985Y-134648949D01*
X116862599Y-134848324D01*
X116740000Y-135031806D01*
X116740000Y-134266092D01*
X116862599Y-134449574D01*
X116862599Y-134449574D01*
G37*
X116862599Y-134449574D02*
X117160985Y-134648949D01*
X116862599Y-134848324D01*
X116740000Y-135031806D01*
X116740000Y-134266092D01*
X116862599Y-134449574D01*
G36*
X141990001Y-132497124D02*
X141863849Y-132308324D01*
X141565463Y-132108949D01*
X141863849Y-131909574D01*
X141990001Y-131720774D01*
X141990001Y-132497124D01*
X141990001Y-132497124D01*
G37*
X141990001Y-132497124D02*
X141863849Y-132308324D01*
X141565463Y-132108949D01*
X141863849Y-131909574D01*
X141990001Y-131720774D01*
X141990001Y-132497124D01*
G36*
X116862599Y-131909574D02*
X117160985Y-132108949D01*
X116862599Y-132308324D01*
X116740000Y-132491806D01*
X116740000Y-131726092D01*
X116862599Y-131909574D01*
X116862599Y-131909574D01*
G37*
X116862599Y-131909574D02*
X117160985Y-132108949D01*
X116862599Y-132308324D01*
X116740000Y-132491806D01*
X116740000Y-131726092D01*
X116862599Y-131909574D01*
G36*
X141990001Y-129957124D02*
X141863849Y-129768324D01*
X141565463Y-129568949D01*
X141863849Y-129369574D01*
X141990001Y-129180775D01*
X141990001Y-129957124D01*
X141990001Y-129957124D01*
G37*
X141990001Y-129957124D02*
X141863849Y-129768324D01*
X141565463Y-129568949D01*
X141863849Y-129369574D01*
X141990001Y-129180775D01*
X141990001Y-129957124D01*
G36*
X116862599Y-129369574D02*
X117160985Y-129568949D01*
X116862599Y-129768324D01*
X116740000Y-129951806D01*
X116740000Y-129186092D01*
X116862599Y-129369574D01*
X116862599Y-129369574D01*
G37*
X116862599Y-129369574D02*
X117160985Y-129568949D01*
X116862599Y-129768324D01*
X116740000Y-129951806D01*
X116740000Y-129186092D01*
X116862599Y-129369574D01*
G36*
X141990001Y-127417123D02*
X141863849Y-127228324D01*
X141565463Y-127028949D01*
X141863849Y-126829574D01*
X141990001Y-126640775D01*
X141990001Y-127417123D01*
X141990001Y-127417123D01*
G37*
X141990001Y-127417123D02*
X141863849Y-127228324D01*
X141565463Y-127028949D01*
X141863849Y-126829574D01*
X141990001Y-126640775D01*
X141990001Y-127417123D01*
G36*
X116862599Y-126829574D02*
X117160985Y-127028949D01*
X116862599Y-127228324D01*
X116740000Y-127411806D01*
X116740000Y-126646092D01*
X116862599Y-126829574D01*
X116862599Y-126829574D01*
G37*
X116862599Y-126829574D02*
X117160985Y-127028949D01*
X116862599Y-127228324D01*
X116740000Y-127411806D01*
X116740000Y-126646092D01*
X116862599Y-126829574D01*
G36*
X141990001Y-124877123D02*
X141863849Y-124688324D01*
X141565463Y-124488949D01*
X141863849Y-124289574D01*
X141990001Y-124100775D01*
X141990001Y-124877123D01*
X141990001Y-124877123D01*
G37*
X141990001Y-124877123D02*
X141863849Y-124688324D01*
X141565463Y-124488949D01*
X141863849Y-124289574D01*
X141990001Y-124100775D01*
X141990001Y-124877123D01*
G36*
X116862599Y-124289574D02*
X117160985Y-124488949D01*
X116862599Y-124688324D01*
X116740000Y-124871806D01*
X116740000Y-124106092D01*
X116862599Y-124289574D01*
X116862599Y-124289574D01*
G37*
X116862599Y-124289574D02*
X117160985Y-124488949D01*
X116862599Y-124688324D01*
X116740000Y-124871806D01*
X116740000Y-124106092D01*
X116862599Y-124289574D01*
G36*
X141990001Y-122337123D02*
X141863849Y-122148324D01*
X141565463Y-121948949D01*
X141863849Y-121749574D01*
X141990001Y-121560775D01*
X141990001Y-122337123D01*
X141990001Y-122337123D01*
G37*
X141990001Y-122337123D02*
X141863849Y-122148324D01*
X141565463Y-121948949D01*
X141863849Y-121749574D01*
X141990001Y-121560775D01*
X141990001Y-122337123D01*
G36*
X116862599Y-121749574D02*
X117160985Y-121948949D01*
X116862599Y-122148324D01*
X116740000Y-122331806D01*
X116740000Y-121566092D01*
X116862599Y-121749574D01*
X116862599Y-121749574D01*
G37*
X116862599Y-121749574D02*
X117160985Y-121948949D01*
X116862599Y-122148324D01*
X116740000Y-122331806D01*
X116740000Y-121566092D01*
X116862599Y-121749574D01*
G36*
X141990001Y-119797123D02*
X141863849Y-119608324D01*
X141565463Y-119408949D01*
X141863849Y-119209574D01*
X141990001Y-119020775D01*
X141990001Y-119797123D01*
X141990001Y-119797123D01*
G37*
X141990001Y-119797123D02*
X141863849Y-119608324D01*
X141565463Y-119408949D01*
X141863849Y-119209574D01*
X141990001Y-119020775D01*
X141990001Y-119797123D01*
G36*
X116862599Y-119209574D02*
X117160985Y-119408949D01*
X116862599Y-119608324D01*
X116740000Y-119791806D01*
X116740000Y-119026092D01*
X116862599Y-119209574D01*
X116862599Y-119209574D01*
G37*
X116862599Y-119209574D02*
X117160985Y-119408949D01*
X116862599Y-119608324D01*
X116740000Y-119791806D01*
X116740000Y-119026092D01*
X116862599Y-119209574D01*
G36*
X141990001Y-117257123D02*
X141863849Y-117068324D01*
X141565463Y-116868949D01*
X141863849Y-116669574D01*
X141990001Y-116480775D01*
X141990001Y-117257123D01*
X141990001Y-117257123D01*
G37*
X141990001Y-117257123D02*
X141863849Y-117068324D01*
X141565463Y-116868949D01*
X141863849Y-116669574D01*
X141990001Y-116480775D01*
X141990001Y-117257123D01*
G36*
X116862599Y-116669574D02*
X117160985Y-116868949D01*
X116862599Y-117068324D01*
X116740000Y-117251806D01*
X116740000Y-116486092D01*
X116862599Y-116669574D01*
X116862599Y-116669574D01*
G37*
X116862599Y-116669574D02*
X117160985Y-116868949D01*
X116862599Y-117068324D01*
X116740000Y-117251806D01*
X116740000Y-116486092D01*
X116862599Y-116669574D01*
G36*
X141990001Y-114717123D02*
X141863849Y-114528324D01*
X141565463Y-114328949D01*
X141863849Y-114129574D01*
X141990001Y-113940775D01*
X141990001Y-114717123D01*
X141990001Y-114717123D01*
G37*
X141990001Y-114717123D02*
X141863849Y-114528324D01*
X141565463Y-114328949D01*
X141863849Y-114129574D01*
X141990001Y-113940775D01*
X141990001Y-114717123D01*
G36*
X116862599Y-114129574D02*
X117160985Y-114328949D01*
X116862599Y-114528324D01*
X116740000Y-114711806D01*
X116740000Y-113946092D01*
X116862599Y-114129574D01*
X116862599Y-114129574D01*
G37*
X116862599Y-114129574D02*
X117160985Y-114328949D01*
X116862599Y-114528324D01*
X116740000Y-114711806D01*
X116740000Y-113946092D01*
X116862599Y-114129574D01*
G36*
X141990001Y-112177123D02*
X141863849Y-111988324D01*
X141565463Y-111788949D01*
X141863849Y-111589574D01*
X141990001Y-111400775D01*
X141990001Y-112177123D01*
X141990001Y-112177123D01*
G37*
X141990001Y-112177123D02*
X141863849Y-111988324D01*
X141565463Y-111788949D01*
X141863849Y-111589574D01*
X141990001Y-111400775D01*
X141990001Y-112177123D01*
G36*
X116862599Y-111589574D02*
X117160985Y-111788949D01*
X116862599Y-111988324D01*
X116740000Y-112171806D01*
X116740000Y-111406092D01*
X116862599Y-111589574D01*
X116862599Y-111589574D01*
G37*
X116862599Y-111589574D02*
X117160985Y-111788949D01*
X116862599Y-111988324D01*
X116740000Y-112171806D01*
X116740000Y-111406092D01*
X116862599Y-111589574D01*
G36*
X141990000Y-109637123D02*
X141863849Y-109448324D01*
X141565463Y-109248949D01*
X141863849Y-109049574D01*
X141990000Y-108860775D01*
X141990000Y-109637123D01*
X141990000Y-109637123D01*
G37*
X141990000Y-109637123D02*
X141863849Y-109448324D01*
X141565463Y-109248949D01*
X141863849Y-109049574D01*
X141990000Y-108860775D01*
X141990000Y-109637123D01*
G36*
X116862599Y-109049574D02*
X117160985Y-109248949D01*
X116862599Y-109448324D01*
X116740000Y-109631806D01*
X116740000Y-108866092D01*
X116862599Y-109049574D01*
X116862599Y-109049574D01*
G37*
X116862599Y-109049574D02*
X117160985Y-109248949D01*
X116862599Y-109448324D01*
X116740000Y-109631806D01*
X116740000Y-108866092D01*
X116862599Y-109049574D01*
G36*
X141990000Y-107097123D02*
X141863849Y-106908324D01*
X141565463Y-106708949D01*
X141863849Y-106509574D01*
X141990000Y-106320775D01*
X141990000Y-107097123D01*
X141990000Y-107097123D01*
G37*
X141990000Y-107097123D02*
X141863849Y-106908324D01*
X141565463Y-106708949D01*
X141863849Y-106509574D01*
X141990000Y-106320775D01*
X141990000Y-107097123D01*
G36*
X116862599Y-106509574D02*
X117160985Y-106708949D01*
X116862599Y-106908324D01*
X116740000Y-107091806D01*
X116740000Y-106326092D01*
X116862599Y-106509574D01*
X116862599Y-106509574D01*
G37*
X116862599Y-106509574D02*
X117160985Y-106708949D01*
X116862599Y-106908324D01*
X116740000Y-107091806D01*
X116740000Y-106326092D01*
X116862599Y-106509574D01*
G36*
X141990000Y-104557123D02*
X141863849Y-104368324D01*
X141565463Y-104168949D01*
X141863849Y-103969574D01*
X141990000Y-103780775D01*
X141990000Y-104557123D01*
X141990000Y-104557123D01*
G37*
X141990000Y-104557123D02*
X141863849Y-104368324D01*
X141565463Y-104168949D01*
X141863849Y-103969574D01*
X141990000Y-103780775D01*
X141990000Y-104557123D01*
G36*
X116862599Y-103969574D02*
X117160985Y-104168949D01*
X116862599Y-104368324D01*
X116740000Y-104551806D01*
X116740000Y-103786092D01*
X116862599Y-103969574D01*
X116862599Y-103969574D01*
G37*
X116862599Y-103969574D02*
X117160985Y-104168949D01*
X116862599Y-104368324D01*
X116740000Y-104551806D01*
X116740000Y-103786092D01*
X116862599Y-103969574D01*
G36*
X141990000Y-102017123D02*
X141863849Y-101828324D01*
X141565463Y-101628949D01*
X141863849Y-101429574D01*
X141990000Y-101240775D01*
X141990000Y-102017123D01*
X141990000Y-102017123D01*
G37*
X141990000Y-102017123D02*
X141863849Y-101828324D01*
X141565463Y-101628949D01*
X141863849Y-101429574D01*
X141990000Y-101240775D01*
X141990000Y-102017123D01*
G36*
X116862599Y-101429574D02*
X117160985Y-101628949D01*
X116862599Y-101828324D01*
X116740000Y-102011806D01*
X116740000Y-101246092D01*
X116862599Y-101429574D01*
X116862599Y-101429574D01*
G37*
X116862599Y-101429574D02*
X117160985Y-101628949D01*
X116862599Y-101828324D01*
X116740000Y-102011806D01*
X116740000Y-101246092D01*
X116862599Y-101429574D01*
G36*
X141990000Y-99477123D02*
X141863849Y-99288324D01*
X141565463Y-99088949D01*
X141863849Y-98889574D01*
X141990000Y-98700775D01*
X141990000Y-99477123D01*
X141990000Y-99477123D01*
G37*
X141990000Y-99477123D02*
X141863849Y-99288324D01*
X141565463Y-99088949D01*
X141863849Y-98889574D01*
X141990000Y-98700775D01*
X141990000Y-99477123D01*
G36*
X116862599Y-98889574D02*
X117160985Y-99088949D01*
X116862599Y-99288324D01*
X116740000Y-99471806D01*
X116740000Y-98706092D01*
X116862599Y-98889574D01*
X116862599Y-98889574D01*
G37*
X116862599Y-98889574D02*
X117160985Y-99088949D01*
X116862599Y-99288324D01*
X116740000Y-99471806D01*
X116740000Y-98706092D01*
X116862599Y-98889574D01*
G36*
X141990000Y-96937123D02*
X141863849Y-96748324D01*
X141565463Y-96548949D01*
X141863849Y-96349574D01*
X141990000Y-96160775D01*
X141990000Y-96937123D01*
X141990000Y-96937123D01*
G37*
X141990000Y-96937123D02*
X141863849Y-96748324D01*
X141565463Y-96548949D01*
X141863849Y-96349574D01*
X141990000Y-96160775D01*
X141990000Y-96937123D01*
G36*
X116862599Y-96349574D02*
X117160985Y-96548949D01*
X116862599Y-96748324D01*
X116740000Y-96931806D01*
X116740000Y-96166092D01*
X116862599Y-96349574D01*
X116862599Y-96349574D01*
G37*
X116862599Y-96349574D02*
X117160985Y-96548949D01*
X116862599Y-96748324D01*
X116740000Y-96931806D01*
X116740000Y-96166092D01*
X116862599Y-96349574D01*
G36*
X141990000Y-94397123D02*
X141863849Y-94208324D01*
X141565463Y-94008949D01*
X141863849Y-93809574D01*
X141990000Y-93620775D01*
X141990000Y-94397123D01*
X141990000Y-94397123D01*
G37*
X141990000Y-94397123D02*
X141863849Y-94208324D01*
X141565463Y-94008949D01*
X141863849Y-93809574D01*
X141990000Y-93620775D01*
X141990000Y-94397123D01*
G36*
X116862599Y-93809574D02*
X117160985Y-94008949D01*
X116862599Y-94208324D01*
X116740000Y-94391806D01*
X116740000Y-93626092D01*
X116862599Y-93809574D01*
X116862599Y-93809574D01*
G37*
X116862599Y-93809574D02*
X117160985Y-94008949D01*
X116862599Y-94208324D01*
X116740000Y-94391806D01*
X116740000Y-93626092D01*
X116862599Y-93809574D01*
G36*
X141990000Y-91857123D02*
X141863849Y-91668324D01*
X141565463Y-91468949D01*
X141863849Y-91269574D01*
X141990000Y-91080775D01*
X141990000Y-91857123D01*
X141990000Y-91857123D01*
G37*
X141990000Y-91857123D02*
X141863849Y-91668324D01*
X141565463Y-91468949D01*
X141863849Y-91269574D01*
X141990000Y-91080775D01*
X141990000Y-91857123D01*
G36*
X116862599Y-91269574D02*
X117160985Y-91468949D01*
X116862599Y-91668324D01*
X116740000Y-91851806D01*
X116740000Y-91086092D01*
X116862599Y-91269574D01*
X116862599Y-91269574D01*
G37*
X116862599Y-91269574D02*
X117160985Y-91468949D01*
X116862599Y-91668324D01*
X116740000Y-91851806D01*
X116740000Y-91086092D01*
X116862599Y-91269574D01*
G36*
X141990000Y-89317123D02*
X141863849Y-89128324D01*
X141565463Y-88928949D01*
X141863849Y-88729574D01*
X141990000Y-88540775D01*
X141990000Y-89317123D01*
X141990000Y-89317123D01*
G37*
X141990000Y-89317123D02*
X141863849Y-89128324D01*
X141565463Y-88928949D01*
X141863849Y-88729574D01*
X141990000Y-88540775D01*
X141990000Y-89317123D01*
G36*
X116862599Y-88729574D02*
X117160985Y-88928949D01*
X116862599Y-89128324D01*
X116740000Y-89311806D01*
X116740000Y-88546092D01*
X116862599Y-88729574D01*
X116862599Y-88729574D01*
G37*
X116862599Y-88729574D02*
X117160985Y-88928949D01*
X116862599Y-89128324D01*
X116740000Y-89311806D01*
X116740000Y-88546092D01*
X116862599Y-88729574D01*
G36*
X141990000Y-86777122D02*
X141863849Y-86588324D01*
X141565463Y-86388949D01*
X141863849Y-86189574D01*
X141990000Y-86000776D01*
X141990000Y-86777122D01*
X141990000Y-86777122D01*
G37*
X141990000Y-86777122D02*
X141863849Y-86588324D01*
X141565463Y-86388949D01*
X141863849Y-86189574D01*
X141990000Y-86000776D01*
X141990000Y-86777122D01*
G36*
X116862599Y-86189574D02*
X117160985Y-86388949D01*
X116862599Y-86588324D01*
X116740000Y-86771806D01*
X116740000Y-86006092D01*
X116862599Y-86189574D01*
X116862599Y-86189574D01*
G37*
X116862599Y-86189574D02*
X117160985Y-86388949D01*
X116862599Y-86588324D01*
X116740000Y-86771806D01*
X116740000Y-86006092D01*
X116862599Y-86189574D01*
G36*
X141990000Y-84237122D02*
X141863849Y-84048324D01*
X141845605Y-84036133D01*
X141890989Y-84027106D01*
X141990000Y-83960948D01*
X141990000Y-84237122D01*
X141990000Y-84237122D01*
G37*
X141990000Y-84237122D02*
X141863849Y-84048324D01*
X141845605Y-84036133D01*
X141890989Y-84027106D01*
X141990000Y-83960948D01*
X141990000Y-84237122D01*
G36*
X116835459Y-84027106D02*
X116880843Y-84036133D01*
X116862599Y-84048324D01*
X116740000Y-84231806D01*
X116740000Y-83963322D01*
X116835459Y-84027106D01*
X116835459Y-84027106D01*
G37*
X116835459Y-84027106D02*
X116880843Y-84036133D01*
X116862599Y-84048324D01*
X116740000Y-84231806D01*
X116740000Y-83963322D01*
X116835459Y-84027106D01*
M02*
