M48
;DRILL file {KiCad (5.0.0-3-g5ebb6b6)} date Sunday, 29 July 2018 at 02:17:23 PM
;FORMAT={-:-/ absolute / inch / decimal}
FMAT,2
INCH,TZ
T1C0.0394
%
G90
G05
M72
T1
X5.543Y-3.2511
X5.543Y-3.3511
X5.543Y-3.4511
X5.543Y-3.5511
X5.543Y-3.6511
X5.543Y-3.7511
X5.543Y-3.8511
X5.543Y-3.9511
X5.543Y-4.0511
X5.543Y-4.1511
X5.543Y-4.2511
X5.543Y-4.3511
X5.543Y-4.4511
X5.543Y-4.5511
X5.543Y-4.6511
X5.543Y-4.7511
X5.543Y-4.8511
X5.543Y-4.9511
X5.543Y-5.0511
X5.543Y-5.1511
X5.543Y-5.2511
X5.543Y-5.3511
X5.543Y-5.4511
X5.543Y-5.5511
X4.643Y-3.2511
X4.643Y-3.3511
X4.643Y-3.4511
X4.643Y-3.5511
X4.643Y-3.6511
X4.643Y-3.7511
X4.643Y-3.8511
X4.643Y-3.9511
X4.643Y-4.0511
X4.643Y-4.1511
X4.643Y-4.2511
X4.643Y-4.3511
X4.643Y-4.4511
X4.643Y-4.5511
X4.643Y-4.6511
X4.643Y-4.7511
X4.643Y-4.8511
X4.643Y-4.9511
X4.643Y-5.0511
X4.643Y-5.1511
X4.643Y-5.2511
X4.643Y-5.3511
X4.643Y-5.4511
X4.643Y-5.5511
T0
M30
