M48
; DRILL file {KiCad (5.1.0-0)} date Sunday, 21 April 2019 at 06:11:51 pm
; FORMAT={-:-/ absolute / inch / decimal}
; #@! TF.CreationDate,2019-04-21T18:11:51+10:00
; #@! TF.GenerationSoftware,Kicad,Pcbnew,(5.1.0-0)
; #@! TF.FileFunction,Plated,1,2,PTH
FMAT,2
INCH
T1C0.0394
%
G90
G05
T1
X5.543Y-3.2511
X5.543Y-3.3511
X5.543Y-3.4511
X5.543Y-3.5511
X5.543Y-3.6511
X5.543Y-3.7511
X5.543Y-3.8511
X5.543Y-3.9511
X5.543Y-4.0511
X5.543Y-4.1511
X5.543Y-4.2511
X5.543Y-4.3511
X5.543Y-4.4511
X5.543Y-4.5511
X5.543Y-4.6511
X5.543Y-4.7511
X5.543Y-4.8511
X5.543Y-4.9511
X5.543Y-5.0511
X5.543Y-5.1511
X5.543Y-5.2511
X5.543Y-5.3511
X5.543Y-5.4511
X5.543Y-5.5511
X4.643Y-3.2511
X4.643Y-3.3511
X4.643Y-3.4511
X4.643Y-3.5511
X4.643Y-3.6511
X4.643Y-3.7511
X4.643Y-3.8511
X4.643Y-3.9511
X4.643Y-4.0511
X4.643Y-4.1511
X4.643Y-4.2511
X4.643Y-4.3511
X4.643Y-4.4511
X4.643Y-4.5511
X4.643Y-4.6511
X4.643Y-4.7511
X4.643Y-4.8511
X4.643Y-4.9511
X4.643Y-5.0511
X4.643Y-5.1511
X4.643Y-5.2511
X4.643Y-5.3511
X4.643Y-5.4511
X4.643Y-5.5511
T0
M30
